<svg width="160" height="36" viewBox="0 0 160 36" fill="none" xmlns="http://www.w3.org/2000/svg">
<path fill-rule="evenodd" clip-rule="evenodd" d="M42.0883 20.8044H56.3875V8.55919C56.3875 4.46571 55.6258 3.19531 51.4364 3.19531H42.0883C37.8989 3.19531 37.1372 4.46571 37.1372 8.55919V15.4405C37.1372 19.534 37.8989 20.8044 42.0883 20.8044ZM51.2473 12.8575C52.1315 12.347 52.1316 11.0707 51.2473 10.5602L44.2842 6.54C43.3999 6.0295 42.2947 6.66763 42.2947 7.68863L42.2947 15.729C42.2947 16.75 43.3999 17.3882 44.2841 16.8777L51.2473 12.8575Z" fill="#6254F6"/>
<path fill-rule="evenodd" clip-rule="evenodd" d="M39.2518 18.2593H53.5511V6.01415C53.5511 1.92066 52.7894 0.650269 48.6 0.650269H39.2518C35.0625 0.650269 34.3008 1.92066 34.3008 6.01415V12.8954C34.3008 16.9889 35.0625 18.2593 39.2518 18.2593ZM43.5664 35.3097H64.7556C66.8329 35.3097 67.6639 34.0041 67.6639 32.5572C67.6639 31.1457 66.8676 29.84 64.7556 29.84H46.6132C45.8515 29.84 45.6784 29.7341 45.6784 28.9578V26.3817C45.6784 24.0174 44.155 22.8881 42.2161 22.8881C40.2772 22.8881 38.6499 23.9821 38.6499 26.3817V30.1576C38.6499 33.9335 39.6886 35.3097 43.5664 35.3097ZM59.7006 5.66725V27.1228H66.4867V17.1361H67.56C69.6374 17.1361 70.2952 15.5128 70.2952 14.066C70.2952 12.6544 69.672 10.9958 67.56 10.9958H66.4867V5.66725C66.4867 3.40878 64.8941 2.17367 63.0937 2.17367C61.2587 2.17367 59.7006 3.37349 59.7006 5.66725ZM49.7371 10.3124C50.6213 9.80191 50.6213 8.52566 49.7371 8.01516L42.7739 3.99496C41.8897 3.48446 40.7844 4.12258 40.7844 5.14358L40.7844 13.184C40.7844 14.205 41.8897 14.8431 42.7739 14.3326L49.7371 10.3124Z" fill="#23DAEF"/>
<path d="M20.9227 26.1351V26.241C26.497 26.0293 32.1405 28.4995 33.1446 35.3102H26.0815C24.939 32.3812 21.9268 30.8991 18.4645 31.3578C15.1407 34.5691 9.22018 36.0865 4.92695 35.4866C3.05731 35.2043 1.88014 34.0751 2.01863 32.2401C2.15712 30.6874 3.47279 29.7699 5.13469 29.911C9.08169 30.2639 13.1326 28.323 13.7558 25.9587C14.3097 23.8414 15.66 23.1356 17.6682 23.1356C19.5724 23.1356 20.992 24.0884 20.9227 26.1351ZM4.02675 17.1365H7.90452V17.0306C7.90452 14.7722 9.3933 14.0664 11.2283 14.0664C13.0287 14.0664 14.5521 14.8075 14.5521 17.0306V17.1365H20.5072V17.0306C20.5072 14.7722 21.996 14.0664 23.831 14.0664C25.6314 14.0664 27.1548 14.8075 27.1548 17.0306V17.1365H31.0326C33.0061 17.1365 33.7332 18.4069 33.7332 19.7126C33.7332 21.0536 32.9715 22.2887 31.0326 22.2887H4.02675C2.08787 22.2887 1.32617 21.0536 1.32617 19.7126C1.32617 18.4069 2.05325 17.1365 4.02675 17.1365ZM20.7496 5.27951C26.22 5.27951 30.9287 7.36155 32.7637 13.8899H25.8738C24.2811 11.1021 21.1304 9.76118 17.495 10.2905C14.3444 12.6901 9.3933 14.137 5.10006 13.9605C3.05731 13.89 2.1225 12.6548 2.15712 11.2433C2.19174 9.79646 3.19581 8.52607 5.27318 8.49078C8.70084 8.45549 12.8902 7.00866 13.6865 4.67961C14.4136 2.56229 15.9024 1.71536 17.772 1.8918C19.607 2.06824 20.9227 2.98575 20.7496 5.27951Z" fill="#23DAEF"/>
<path fill-rule="evenodd" clip-rule="evenodd" d="M40.578 19.5859H54.8773V7.34077C54.8773 3.24729 54.1156 1.97689 49.9262 1.97689H40.578C36.3887 1.97689 35.627 3.24729 35.627 7.34077V14.2221C35.627 18.3155 36.3887 19.5859 40.578 19.5859ZM42.2399 33.9837H63.4291C65.5065 33.9837 66.3374 32.678 66.3374 31.2312C66.3374 29.8197 65.5411 28.514 63.4291 28.514H45.2867C44.525 28.514 44.3519 28.4081 44.3519 27.6318V25.0557C44.3519 22.6913 42.8285 21.5621 40.8896 21.5621C38.9507 21.5621 37.3235 22.6561 37.3235 25.0557V28.8316C37.3235 32.6075 38.3622 33.9837 42.2399 33.9837ZM58.3742 4.34123V25.7967H65.1602V15.8101H66.2336C68.3109 15.8101 68.9688 14.1868 68.9688 12.7399C68.9688 11.3284 68.3456 9.66983 66.2336 9.66983H65.1602V4.34123C65.1602 2.08276 63.5676 0.847656 61.7672 0.847656C59.9322 0.847656 58.3742 2.04747 58.3742 4.34123ZM49.7372 11.6386C50.6214 11.1281 50.6215 9.85189 49.7372 9.34139L42.7741 5.32119C41.8898 4.81069 40.7846 5.44881 40.7846 6.46981L40.7846 14.5102C40.7846 15.5312 41.8898 16.1693 42.774 15.6588L49.7372 11.6386Z" fill="white"/>
<path d="M19.5965 24.8088V24.9147C25.1708 24.703 30.8143 27.1732 31.8184 33.9839H24.7553C23.6128 31.0549 20.6006 29.5728 17.1383 30.0316C13.8145 33.2428 7.89401 34.7602 3.60078 34.1603C1.73114 33.878 0.553966 32.7488 0.692457 30.9138C0.830948 29.3611 2.14662 28.4436 3.80851 28.5847C7.75552 28.9376 11.8064 26.9967 12.4296 24.6324C12.9836 22.5151 14.3339 21.8093 16.342 21.8093C18.2462 21.8093 19.6658 22.7621 19.5965 24.8088ZM2.70058 15.8102H6.57834V15.7043C6.57834 13.4459 8.06713 12.7401 9.90214 12.7401C11.7025 12.7401 13.2259 13.4812 13.2259 15.7043V15.8102H19.1811V15.7043C19.1811 13.4459 20.6698 12.7401 22.5049 12.7401C24.3052 12.7401 25.8287 13.4812 25.8287 15.7043V15.8102H29.7064C31.6799 15.8102 32.407 17.0806 32.407 18.3863C32.407 19.7273 31.6453 20.9624 29.7064 20.9624H2.70058C0.761702 20.9624 0 19.7273 0 18.3863C0 17.0806 0.72708 15.8102 2.70058 15.8102ZM19.4234 3.95322C24.8938 3.95322 29.6025 6.03525 31.4376 12.5637H24.5476C22.955 9.77585 19.8043 8.43488 16.1689 8.96421C13.0182 11.3638 8.06713 12.8107 3.77389 12.6342C1.73114 12.5637 0.796326 11.3286 0.830948 9.91701C0.865571 8.47017 1.86963 7.19978 3.94701 7.16449C7.37467 7.1292 11.564 5.68237 12.3604 3.35331C13.0874 1.23599 14.5762 0.389064 16.4459 0.565507C18.2809 0.74195 19.5965 1.65946 19.4234 3.95322Z" fill="white"/>
<path d="M158.806 12.7448C158.806 15.2118 157.573 17.44 155.026 18.8724C158.448 20.2253 160 22.8514 160 25.955V25.9948C160 32.759 154.748 35.2658 147.665 35.2658H140.742C135.967 35.2658 134.535 33.5548 134.535 28.979V9.52187C134.535 4.94606 135.967 3.23511 140.742 3.23511H146.551C153.833 3.23511 158.806 6.57744 158.806 12.5061V12.7448ZM148.143 22.4933H142.612V27.3476C142.612 28.3026 142.851 28.5015 143.766 28.5015H148.143C150.769 28.5015 151.923 27.0691 151.923 25.6367V25.3581C151.923 23.9257 150.769 22.4933 148.143 22.4933ZM143.766 9.99934C142.851 9.99934 142.612 10.1983 142.612 11.1532V16.0076H146.949C149.575 16.0076 150.729 14.4956 150.729 13.1427V12.8642C150.729 11.4318 149.575 9.99934 146.949 9.99934H143.766Z" fill="#6254F6"/>
<path d="M101.767 35.2659L111.993 6.37859C112.788 4.15037 114.977 3.07605 117.125 3.07605C119.155 3.07605 121.264 4.22995 122.02 6.37859L132.405 35.2659H123.651L122.099 30.3319H111.873L110.361 35.2659H101.767ZM117.006 13.6999L113.942 23.6075H120.03L117.006 13.6999Z" fill="#6254F6"/>
<path d="M98.1648 35.2659H86.1086C81.3338 35.2659 79.9014 33.5549 79.9014 28.9791V7.13459C79.9014 4.46869 81.8908 3.07605 84.0395 3.07605C86.1881 3.07605 88.1776 4.46869 88.1776 7.13459V27.1488C88.1776 28.1037 88.4163 28.3027 89.3315 28.3027H98.1648C100.512 28.3027 101.388 30.0932 101.388 31.7246C101.388 33.356 100.473 35.2659 98.1648 35.2659Z" fill="#6254F6"/>
<path d="M157.48 11.4184C157.48 13.8854 156.247 16.1136 153.7 17.546C157.122 18.8989 158.674 21.525 158.674 24.6286V24.6684C158.674 31.4326 153.422 33.9393 146.339 33.9393H139.416C134.641 33.9393 133.208 32.2284 133.208 27.6526V8.19545C133.208 3.61964 134.641 1.90869 139.416 1.90869H145.225C152.506 1.90869 157.48 5.25102 157.48 11.1797V11.4184ZM146.817 21.1669H141.286V26.0212C141.286 26.9762 141.525 27.1751 142.44 27.1751H146.817C149.443 27.1751 150.597 25.7427 150.597 24.3103V24.0317C150.597 22.5993 149.443 21.1669 146.817 21.1669ZM142.44 8.67293C141.525 8.67293 141.286 8.87188 141.286 9.82683V14.6812H145.623C148.249 14.6812 149.403 13.1692 149.403 11.8163V11.5378C149.403 10.1054 148.249 8.67293 145.623 8.67293H142.44Z" fill="white"/>
<path d="M100.44 33.9394L110.666 5.05217C111.462 2.82395 113.651 1.74963 115.799 1.74963C117.829 1.74963 119.937 2.90353 120.693 5.05217L131.078 33.9394H122.325L120.773 29.0055H110.547L109.035 33.9394H100.44ZM115.68 12.3735L112.616 22.2811H118.704L115.68 12.3735Z" fill="white"/>
<path d="M96.8386 33.9394H84.7824C80.0076 33.9394 78.5752 32.2285 78.5752 27.6527V5.80818C78.5752 3.14227 80.5647 1.74963 82.7133 1.74963C84.862 1.74963 86.8514 3.14227 86.8514 5.80818V25.8224C86.8514 26.7773 87.0902 26.9763 88.0053 26.9763H96.8386C99.1862 26.9763 100.062 28.7668 100.062 30.3982C100.062 32.0295 99.1464 33.9394 96.8386 33.9394Z" fill="white"/>
</svg>
