<svg width="160" height="36" viewBox="0 0 160 36" fill="none" xmlns="http://www.w3.org/2000/svg">
<path fill-rule="evenodd" clip-rule="evenodd" d="M42.0883 20.2616H56.3875V8.01647C56.3875 3.92298 55.6258 2.65259 51.4364 2.65259H42.0883C37.8989 2.65259 37.1372 3.92298 37.1372 8.01647V14.8978C37.1372 18.9912 37.8989 20.2616 42.0883 20.2616ZM51.2475 12.3145C52.1317 11.804 52.1317 10.5277 51.2475 10.0172L44.2843 5.99704C43.4001 5.48654 42.2948 6.12466 42.2948 7.14567L42.2948 15.1861C42.2948 16.2071 43.4001 16.8452 44.2843 16.3347L51.2475 12.3145Z" fill="#6254F6"/>
<path fill-rule="evenodd" clip-rule="evenodd" d="M39.2518 17.717H53.5511V5.47179C53.5511 1.3783 52.7894 0.10791 48.6 0.10791H39.2518C35.0625 0.10791 34.3008 1.3783 34.3008 5.47179V12.3531C34.3008 16.4466 35.0625 17.717 39.2518 17.717ZM43.5664 34.7674H64.7556C66.8329 34.7674 67.6639 33.4617 67.6639 32.0149C67.6639 30.6033 66.8676 29.2976 64.7556 29.2976H46.6132C45.8515 29.2976 45.6784 29.1918 45.6784 28.4154V25.8393C45.6784 23.475 44.155 22.3458 42.2161 22.3458C40.2772 22.3458 38.6499 23.4397 38.6499 25.8393V29.6152C38.6499 33.3911 39.6886 34.7674 43.5664 34.7674ZM59.7006 5.12489V26.5804H66.4867V16.5937H67.56C69.6374 16.5937 70.2952 14.9704 70.2952 13.5236C70.2952 12.1121 69.672 10.4535 67.56 10.4535H66.4867V5.12489C66.4867 2.86642 64.8941 1.63131 63.0937 1.63131C61.2587 1.63131 59.7006 2.83113 59.7006 5.12489ZM49.7372 9.76981C50.6215 9.25931 50.6215 7.98306 49.7372 7.47255L42.7741 3.45236C41.8898 2.94185 40.7846 3.57998 40.7846 4.60098L40.7846 12.6414C40.7846 13.6624 41.8898 14.3005 42.774 13.79L49.7372 9.76981Z" fill="#23DAEF"/>
<path d="M20.923 25.5922V25.698C26.4972 25.4863 32.1408 27.9565 33.1448 34.7672H26.0818C24.9392 31.8382 21.927 30.3561 18.4647 30.8149C15.1409 34.0261 9.22043 35.5436 4.92719 34.9437C3.05756 34.6613 1.88038 33.5321 2.01887 31.6971C2.15736 30.1444 3.47303 29.2269 5.13493 29.368C9.08194 29.7209 13.1328 27.78 13.756 25.4157C14.31 23.2984 15.6603 22.5926 17.6684 22.5926C19.5727 22.5926 20.9922 23.5454 20.923 25.5922ZM4.027 16.5935H7.90476V16.4877C7.90476 14.2292 9.39354 13.5234 11.2286 13.5234C13.0289 13.5234 14.5523 14.2645 14.5523 16.4877V16.5935H20.5075V16.4877C20.5075 14.2292 21.9963 13.5234 23.8313 13.5234C25.6317 13.5234 27.1551 14.2645 27.1551 16.4877V16.5935H31.0328C33.0063 16.5935 33.7334 17.8639 33.7334 19.1696C33.7334 20.5106 32.9717 21.7457 31.0328 21.7457H4.027C2.08812 21.7457 1.32642 20.5106 1.32642 19.1696C1.32642 17.8639 2.0535 16.5935 4.027 16.5935ZM20.7498 4.73654C26.2202 4.73654 30.929 6.81858 32.764 13.347H25.874C24.2814 10.5592 21.1307 9.21821 17.4953 9.74754C14.3446 12.1472 9.39354 13.594 5.10031 13.4176C3.05756 13.347 2.12274 12.1119 2.15736 10.7003C2.19199 9.2535 3.19605 7.9831 5.27342 7.94781C8.70108 7.91252 12.8905 6.46569 13.6868 4.13664C14.4139 2.01932 15.9026 1.17239 17.7723 1.34883C19.6073 1.52528 20.923 2.44278 20.7498 4.73654Z" fill="#23DAEF"/>
<path fill-rule="evenodd" clip-rule="evenodd" d="M40.578 19.0432H54.8773V6.79805C54.8773 2.70456 54.1156 1.43417 49.9262 1.43417H40.578C36.3887 1.43417 35.627 2.70456 35.627 6.79805V13.6793C35.627 17.7728 36.3887 19.0432 40.578 19.0432ZM42.2399 33.441H63.4291C65.5065 33.441 66.3374 32.1353 66.3374 30.6885C66.3374 29.2769 65.5411 27.9713 63.4291 27.9713H45.2867C44.525 27.9713 44.3519 27.8654 44.3519 27.089V24.513C44.3519 22.1486 42.8285 21.0194 40.8896 21.0194C38.9507 21.0194 37.3235 22.1133 37.3235 24.513V28.2889C37.3235 32.0647 38.3622 33.441 42.2399 33.441ZM58.3742 3.79851V25.254H65.1602V15.2673H66.2336C68.3109 15.2673 68.9688 13.6441 68.9688 12.1972C68.9688 10.7857 68.3456 9.1271 66.2336 9.1271H65.1602V3.79851C65.1602 1.54003 63.5676 0.304932 61.7672 0.304932C59.9322 0.304932 58.3742 1.50475 58.3742 3.79851ZM49.7372 11.096C50.6214 10.5855 50.6215 9.30924 49.7372 8.79874L42.7741 4.77854C41.8898 4.26804 40.7846 4.90616 40.7846 5.92717L40.7846 13.9676C40.7846 14.9886 41.8898 15.6267 42.774 15.1162L49.7372 11.096Z" fill="black"/>
<path d="M19.5965 24.266V24.3718C25.1708 24.1601 30.8143 26.6303 31.8184 33.441H24.7553C23.6128 30.5121 20.6006 29.03 17.1383 29.4887C13.8145 32.7 7.89401 34.2174 3.60078 33.6175C1.73114 33.3352 0.553966 32.2059 0.692457 30.3709C0.830948 28.8182 2.14662 27.9007 3.80851 28.0419C7.75552 28.3948 11.8064 26.4539 12.4296 24.0895C12.9836 21.9722 14.3339 21.2664 16.342 21.2664C18.2462 21.2664 19.6658 22.2192 19.5965 24.266ZM2.70058 15.2674H6.57834V15.1615C6.57834 12.903 8.06713 12.1973 9.90214 12.1973C11.7025 12.1973 13.2259 12.9383 13.2259 15.1615V15.2674H19.1811V15.1615C19.1811 12.903 20.6698 12.1973 22.5049 12.1973C24.3052 12.1973 25.8287 12.9383 25.8287 15.1615V15.2674H29.7064C31.6799 15.2674 32.407 16.5378 32.407 17.8434C32.407 19.1844 31.6453 20.4195 29.7064 20.4195H2.70058C0.761702 20.4195 0 19.1844 0 17.8434C0 16.5378 0.72708 15.2674 2.70058 15.2674ZM19.4234 3.41037C24.8938 3.41037 29.6025 5.4924 31.4376 12.0208H24.5476C22.955 9.233 19.8043 7.89204 16.1689 8.42137C13.0182 10.821 8.06713 12.2678 3.77389 12.0914C1.73114 12.0208 0.796326 10.7857 0.830948 9.37416C0.865571 7.92732 1.86963 6.65693 3.94701 6.62164C7.37467 6.58635 11.564 5.13952 12.3604 2.81047C13.0874 0.693145 14.5762 -0.153783 16.4459 0.0226601C18.2809 0.199103 19.5965 1.11661 19.4234 3.41037Z" fill="black"/>
<path d="M158.807 12.2021C158.807 14.6691 157.573 16.8973 155.027 18.3297C158.449 19.6826 160.001 22.3087 160.001 25.4123V25.4521C160.001 32.2163 154.748 34.723 147.666 34.723H140.742C135.968 34.723 134.535 33.0121 134.535 28.4363V8.97914C134.535 4.40334 135.968 2.69238 140.742 2.69238H146.552C153.833 2.69238 158.807 6.03471 158.807 11.9634V12.2021ZM148.143 21.9506H142.612V26.8049C142.612 27.7598 142.851 27.9588 143.766 27.9588H148.143C150.769 27.9588 151.923 26.5264 151.923 25.0939V24.8154C151.923 23.383 150.769 21.9506 148.143 21.9506ZM143.766 9.45662C142.851 9.45662 142.612 9.65557 142.612 10.6105V15.4649H146.95C149.576 15.4649 150.73 13.9528 150.73 12.6V12.3215C150.73 10.889 149.576 9.45662 146.95 9.45662H143.766Z" fill="#6254F6"/>
<path d="M101.767 34.723L111.993 5.83574C112.789 3.60752 114.977 2.5332 117.126 2.5332C119.155 2.5332 121.264 3.6871 122.02 5.83574L132.405 34.723H123.651L122.099 29.7891H111.873L110.361 34.723H101.767ZM117.006 13.157L113.942 23.0647H120.03L117.006 13.157Z" fill="#6254F6"/>
<path d="M98.1651 34.723H86.1088C81.334 34.723 79.9016 33.0121 79.9016 28.4363V6.59175C79.9016 3.92584 81.8911 2.5332 84.0397 2.5332C86.1884 2.5332 88.1779 3.92584 88.1779 6.59175V26.6059C88.1779 27.5609 88.4166 27.7598 89.3318 27.7598H98.1651C100.513 27.7598 101.388 29.5504 101.388 31.1817C101.388 32.8131 100.473 34.723 98.1651 34.723Z" fill="#6254F6"/>
<path d="M157.481 10.8757C157.481 13.3426 156.247 15.5709 153.701 17.0033C157.123 18.3561 158.674 20.9823 158.674 24.0858V24.1256C158.674 30.8899 153.422 33.3966 146.34 33.3966H139.416C134.641 33.3966 133.209 31.6857 133.209 27.1099V7.65273C133.209 3.07692 134.641 1.36597 139.416 1.36597H145.225C152.507 1.36597 157.481 4.7083 157.481 10.6369V10.8757ZM146.817 20.6241H141.286V25.4785C141.286 26.4334 141.525 26.6324 142.44 26.6324H146.817C149.443 26.6324 150.597 25.2 150.597 23.7675V23.489C150.597 22.0566 149.443 20.6241 146.817 20.6241ZM142.44 8.1302C141.525 8.1302 141.286 8.32915 141.286 9.2841V14.1384H145.623C148.249 14.1384 149.403 12.6264 149.403 11.2736V10.9951C149.403 9.56263 148.249 8.1302 145.623 8.1302H142.44Z" fill="black"/>
<path d="M100.441 33.3966L110.667 4.50933C111.462 2.28111 113.651 1.20679 115.799 1.20679C117.829 1.20679 119.938 2.36069 120.694 4.50933L131.079 33.3966H122.325L120.773 28.4627H110.547L109.035 33.3966H100.441ZM115.68 11.8306L112.616 21.7382H118.704L115.68 11.8306Z" fill="black"/>
<path d="M96.8389 33.3966H84.7826C80.0079 33.3966 78.5754 31.6856 78.5754 27.1098V5.26533C78.5754 2.59943 80.5649 1.20679 82.7136 1.20679C84.8622 1.20679 86.8517 2.59943 86.8517 5.26533V25.2795C86.8517 26.2345 87.0904 26.4334 88.0056 26.4334H96.8389C99.1865 26.4334 100.062 28.2239 100.062 29.8553C100.062 31.4867 99.1467 33.3966 96.8389 33.3966Z" fill="black"/>
</svg>
