<svg width="61" height="61" viewBox="0 0 61 61" fill="none" xmlns="http://www.w3.org/2000/svg">
<g clip-path="url(#clip0_0_389)">
<path d="M51.9416 51.9432C63.6573 40.2275 63.6573 21.2325 51.9416 9.51678C40.2259 -2.19895 21.2309 -2.19895 9.51521 9.51678C-2.20052 21.2325 -2.20052 40.2275 9.51521 51.9432C21.2309 63.6589 40.2259 63.6589 51.9416 51.9432Z" fill="white"/>
<path d="M14.5576 23.7472C14.5576 22.2863 15.7427 21.0961 17.2087 21.0961C18.6748 21.0961 19.8598 22.2812 19.8598 23.7472C19.8598 25.2132 18.6748 26.3983 17.2087 26.3983C15.7427 26.3983 14.5576 25.2132 14.5576 23.7472Z" fill="#272525"/>
<path d="M41.5999 23.7472C41.5999 22.2863 42.7849 21.0961 44.251 21.0961C45.717 21.0961 46.9021 22.2812 46.9021 23.7472C46.9021 25.2132 45.717 26.3983 44.251 26.3983C42.7849 26.3983 41.5999 25.2132 41.5999 23.7472Z" fill="#272525"/>
<path d="M16.1973 43.0099C18.6287 37.396 24.2221 33.4679 30.7299 33.4679C37.2376 33.4679 42.8259 37.3909 45.2574 43.0048" stroke="#272525" stroke-width="2.17095" stroke-linecap="round" stroke-linejoin="round"/>
</g>
<defs>
<clipPath id="clip0_0_389">
<rect width="60" height="60" fill="white" transform="translate(0.72998 0.72998)"/>
</clipPath>
</defs>
</svg>
