<svg width="16" height="14" viewBox="0 0 16 14" fill="none" xmlns="http://www.w3.org/2000/svg">
<path d="M5.67871 0.985168H10.3184C11.6251 0.98872 12.8777 1.50937 13.8018 2.43341C14.6682 3.2998 15.1798 4.45479 15.2432 5.67267L15.25 5.91681C15.2454 7.09649 14.8193 8.23623 14.0488 9.1297C13.2775 10.024 12.2116 10.6126 11.0439 10.7899C10.8371 10.8212 10.6538 10.9377 10.5371 11.1082L10.4912 11.1844C9.97689 12.1701 9.01075 12.8104 7.42285 12.9725C7.68432 12.6131 7.89055 12.2409 8.03223 11.8494C8.1154 11.6196 8.08083 11.363 7.94043 11.1629C7.80002 10.9629 7.57057 10.8436 7.32617 10.8436H5.67871C4.70391 10.8447 3.75021 10.5567 2.93945 10.0154C2.12877 9.47424 1.49683 8.70416 1.12402 7.80353C0.751288 6.90292 0.654681 5.91167 0.845703 4.95587C1.03676 4.00012 1.507 3.12251 2.19727 2.43439L2.2002 2.43146C2.65548 1.97243 3.19795 1.6084 3.79492 1.36017C4.39182 1.11201 5.03228 0.984285 5.67871 0.985168Z" stroke="#666666" stroke-width="1.5" stroke-linejoin="round"/>
</svg>
