<svg width="24" height="24" viewBox="0 0 24 24" fill="none" xmlns="http://www.w3.org/2000/svg">
<path d="M19.2066 4.6375H18.6V3.6625C18.6 3.50337 18.5368 3.35076 18.4243 3.23824C18.3117 3.12571 18.1591 3.0625 18 3.0625C17.8409 3.0625 17.6883 3.12571 17.5757 3.23824C17.4632 3.35076 17.4 3.50337 17.4 3.6625V4.6375H12.6V3.6625C12.6 3.50337 12.5368 3.35076 12.4243 3.23824C12.3117 3.12571 12.1591 3.0625 12 3.0625C11.8409 3.0625 11.6883 3.12571 11.5757 3.23824C11.4632 3.35076 11.4 3.50337 11.4 3.6625V4.6375H6.6V3.6625C6.6 3.50337 6.53679 3.35076 6.42426 3.23824C6.31174 3.12571 6.15913 3.0625 6 3.0625C5.84087 3.0625 5.68826 3.12571 5.57574 3.23824C5.46321 3.35076 5.4 3.50337 5.4 3.6625V4.6375H4.7934C4.31791 4.63798 3.86203 4.82708 3.5258 5.1633C3.18958 5.49953 3.00048 5.95541 3 6.4309V18.6441C3.00048 19.1196 3.18958 19.5755 3.5258 19.9117C3.86203 20.2479 4.31791 20.437 4.7934 20.4375H19.2066C19.6821 20.437 20.138 20.2479 20.4742 19.9117C20.8104 19.5755 20.9995 19.1196 21 18.6441V6.4309C20.9995 5.95541 20.8104 5.49953 20.4742 5.1633C20.138 4.82708 19.6821 4.63798 19.2066 4.6375ZM4.7934 5.8375H5.4V6.74375C5.4 6.90288 5.46321 7.05549 5.57574 7.16801C5.68826 7.28054 5.84087 7.34375 6 7.34375C6.15913 7.34375 6.31174 7.28054 6.42426 7.16801C6.53679 7.05549 6.6 6.90288 6.6 6.74375V5.8375H11.4V6.74375C11.4 6.90288 11.4632 7.05549 11.5757 7.16801C11.6883 7.28054 11.8409 7.34375 12 7.34375C12.1591 7.34375 12.3117 7.28054 12.4243 7.16801C12.5368 7.05549 12.6 6.90288 12.6 6.74375V5.8375H17.4V6.74375C17.4 6.90288 17.4632 7.05549 17.5757 7.16801C17.6883 7.28054 17.8409 7.34375 18 7.34375C18.1591 7.34375 18.3117 7.28054 18.4243 7.16801C18.5368 7.05549 18.6 6.90288 18.6 6.74375V5.8375H19.2066C19.3639 5.83766 19.5148 5.90023 19.626 6.01148C19.7373 6.12273 19.7998 6.27357 19.8 6.4309V9.2375H4.2V6.4309C4.20016 6.27357 4.26273 6.12273 4.37398 6.01148C4.48523 5.90023 4.63607 5.83766 4.7934 5.8375ZM19.2066 19.2375H4.7934C4.63607 19.2373 4.48523 19.1748 4.37398 19.0635C4.26273 18.9523 4.20016 18.8014 4.2 18.6441V10.4375H19.8V18.6441C19.7998 18.8014 19.7373 18.9523 19.626 19.0635C19.5148 19.1748 19.3639 19.2373 19.2066 19.2375Z" fill="#555555"/>
</svg>
