<svg width="30" height="16" viewBox="0 0 30 16" fill="none" xmlns="http://www.w3.org/2000/svg">
<path d="M21 16L18.4019 11.5L23.5981 11.5L21 16Z" fill="#6254F6"/>
<rect width="30" height="14" rx="7" fill="#6254F6"/>
<path d="M4.69553 10V3.63672H7.22678C8.63303 3.63672 9.33615 4.31348 9.33615 5.27148C9.33615 6.01855 8.85275 6.48438 8.19357 6.63379V6.69531C8.91428 6.73047 9.59103 7.30176 9.59103 8.24219C9.59103 9.25293 8.83518 10 7.39377 10H4.69553ZM7.1301 8.91016C7.89475 8.91016 8.21994 8.59375 8.21994 8.11914C8.21994 7.58301 7.81564 7.20508 7.16525 7.20508H6.01389V8.91016H7.1301ZM7.03342 6.2998C7.58713 6.2998 8.00021 5.99219 8.00021 5.48242C8.00021 5.02539 7.66623 4.70898 7.05978 4.70898H6.01389V6.2998H7.03342ZM10.156 10V3.63672H14.4275V4.72656H11.4744V6.27344H14.2078V7.36328H11.4744V8.91016H14.4363V10H10.156ZM14.9397 4.72656V3.63672H20.1516V4.72656H18.2004V10H16.8909V4.72656H14.9397ZM20.9803 10H19.5564L21.7625 3.63672H23.4588L25.656 10H24.241L23.7664 8.53223H21.4637L20.9803 10ZM21.7976 7.50391H23.4324L22.6326 5.06934H22.5887L21.7976 7.50391Z" fill="white"/>
</svg>
