<svg width="12" height="12" viewBox="0 0 12 12" fill="none" xmlns="http://www.w3.org/2000/svg">
<path d="M6.65 0.75C6.65 0.391015 6.35899 0.1 6 0.1C5.64101 0.1 5.35 0.391015 5.35 0.75L6.65 0.75ZM5.54038 9.70962C5.79422 9.96346 6.20578 9.96346 6.45962 9.70962L10.5962 5.57304C10.85 5.3192 10.85 4.90765 10.5962 4.65381C10.3424 4.39996 9.9308 4.39996 9.67696 4.65381L6 8.33076L2.32305 4.65381C2.0692 4.39997 1.65765 4.39997 1.40381 4.65381C1.14997 4.90765 1.14997 5.3192 1.40381 5.57305L5.54038 9.70962ZM5.35 0.75L5.35 9.25L6.65 9.25L6.65 0.75L5.35 0.75Z" fill="#FA4F8C"/>
</svg>
