<svg width="24" height="24" viewBox="0 0 24 24" fill="none" xmlns="http://www.w3.org/2000/svg">
<g clip-path="url(#clip0_0_713)">
<path d="M21.5236 17.2072C21.3713 16.0436 20.8422 14.9686 19.9969 14.1279C19.9141 14.0455 19.8288 13.9664 19.7416 13.8902L20.6624 12.857C21.0329 13.0935 21.467 13.2076 21.9146 13.1818C22.4767 13.1493 22.9926 12.8998 23.367 12.4796C23.7418 12.0592 23.9304 11.5179 23.8979 10.9555C23.8654 10.3933 23.6159 9.8774 23.1957 9.50306C22.8061 9.15576 22.3131 8.96835 21.7955 8.96835C21.7935 8.96835 21.7916 8.96835 21.7896 8.96835C21.7314 8.45189 21.4883 7.98135 21.0975 7.63326C20.2299 6.85968 18.8945 6.93646 18.1203 7.80478C17.7458 8.2252 17.5574 8.76632 17.5898 9.3285C17.6156 9.77592 17.7787 10.1939 18.0563 10.5349L16.238 12.5755C16.2369 12.5755 16.2359 12.5754 16.2349 12.5754C16.0864 12.5754 15.939 12.5818 15.7927 12.5938C15.0789 11.7092 14.182 10.9716 13.1765 10.4471C12.0088 9.83798 10.6912 9.51604 9.36605 9.51604C5.00484 9.51604 1.42378 12.9178 1.13541 17.2072H0V18.2071C0 19.7838 1.28269 21.0665 2.85938 21.0665H21.1406C22.7173 21.0665 24 19.7838 24 18.2071V17.2072H21.5236ZM20.1945 10.2492L19.3814 9.83568C19.325 9.80699 19.2732 9.77179 19.2275 9.73115C19.0876 9.60651 19.0046 9.43476 18.9938 9.24759C18.9831 9.06037 19.0458 8.88014 19.1703 8.74035C19.4281 8.45118 19.8729 8.42531 20.1621 8.68307C20.3019 8.80771 20.385 8.97946 20.3957 9.16664C20.4065 9.35385 20.3438 9.53409 20.219 9.6741L21.2691 10.6094C21.3937 10.4695 21.5654 10.3866 21.7525 10.3758C21.9394 10.365 22.1199 10.4279 22.2601 10.5529C22.4002 10.6776 22.4832 10.8494 22.494 11.0366C22.5048 11.2237 22.4421 11.4038 22.3171 11.5439C22.1925 11.684 22.0207 11.767 21.8335 11.7778C21.646 11.7886 21.4663 11.7259 21.3259 11.6007C21.2802 11.56 21.2399 11.5134 21.2061 11.4621L20.7027 10.6981L18.5577 13.1051C18.3413 13.0003 18.1182 12.9103 17.8895 12.8359L20.1945 10.2492ZM16.2349 13.9818C18.1474 13.9817 19.751 15.363 20.095 17.1803H16.9111V17.1802H12.3749C12.719 15.3629 14.3225 13.9818 16.2349 13.9818ZM9.36609 10.9223C11.2034 10.9223 12.9604 11.6701 14.2376 12.9609C13.5855 13.224 12.9862 13.6174 12.4729 14.128C11.6342 14.9623 11.107 16.0271 10.95 17.1802H2.54719C2.84541 13.6797 5.78981 10.9223 9.36609 10.9223ZM21.1406 19.6603H2.85938C2.19905 19.6603 1.6402 19.2176 1.464 18.6134H22.536C22.3598 19.2176 21.801 19.6603 21.1406 19.6603Z" fill="white"/>
<path d="M9 3V6" stroke="white" stroke-width="1.5" stroke-linecap="round"/>
<path d="M6 5V8" stroke="white" stroke-width="1.5" stroke-linecap="round"/>
</g>
<defs>
<clipPath id="clip0_0_713">
<rect width="24" height="24" fill="white"/>
</clipPath>
</defs>
</svg>
