<svg width="20" height="20" viewBox="0 0 20 20" fill="none" xmlns="http://www.w3.org/2000/svg">
<path d="M18.3118 9.97598C18.3206 11.8759 17.6813 13.722 16.4995 15.2097C15.3177 16.6973 13.6639 17.7376 11.8112 18.1587C9.95856 18.5799 8.01766 18.3567 6.30886 17.5262C4.60007 16.6956 3.22553 15.3073 2.41209 13.5903C1.59866 11.8733 1.39495 9.93022 1.8346 8.08184C2.27425 6.23346 3.33097 4.59022 4.83035 3.42332C6.32974 2.25643 8.18217 1.63563 10.0819 1.66338C11.9817 1.69113 13.8152 2.36578 15.2798 3.57598V2.39998C15.2798 2.1878 15.3641 1.98432 15.5141 1.83429C15.6642 1.68426 15.8677 1.59998 16.0798 1.59998C16.292 1.59998 16.4955 1.68426 16.6455 1.83429C16.7955 1.98432 16.8798 2.1878 16.8798 2.39998V5.43998C16.8798 5.65215 16.7955 5.85563 16.6455 6.00566C16.4955 6.15569 16.292 6.23998 16.0798 6.23998H13.0398C12.8277 6.23998 12.6242 6.15569 12.4741 6.00566C12.3241 5.85563 12.2398 5.65215 12.2398 5.43998C12.2398 5.2278 12.3241 5.02432 12.4741 4.87429C12.6242 4.72426 12.8277 4.63998 13.0398 4.63998H14.0798C12.8737 3.71328 11.3895 3.22206 9.86867 3.24626C8.34786 3.27046 6.88 3.80865 5.70398 4.77324C4.52796 5.73784 3.71302 7.07205 3.39178 8.55875C3.07054 10.0454 3.26191 11.5971 3.93476 12.9612C4.6076 14.3253 5.7223 15.4215 7.09744 16.0714C8.47259 16.7214 10.0272 16.8868 11.5083 16.5408C12.9895 16.1947 14.3099 15.3576 15.2547 14.1656C16.1995 12.9736 16.7131 11.497 16.7118 9.97598C16.7118 9.7638 16.7961 9.56032 16.9461 9.41029C17.0962 9.26026 17.2997 9.17598 17.5118 9.17598C17.724 9.17598 17.9275 9.26026 18.0775 9.41029C18.2275 9.56032 18.3118 9.7638 18.3118 9.97598Z" fill="#999999"/>
</svg>
