<svg width="65" height="61" viewBox="0 0 65 61" fill="none" xmlns="http://www.w3.org/2000/svg">
<g clip-path="url(#clip0_0_502)">
<path d="M5.11749 32.6613C5.04086 31.7878 5 30.899 5 30.0051C5 13.4344 18.4293 0 35 0C51.5707 0 65 13.4344 65 30C65 46.5656 51.5656 60 35 60C24.9523 60 16.0591 55.0604 10.6138 47.48" fill="white"/>
<path d="M18.0103 25.0497C18.6539 23.9361 19.8594 23.1903 21.2335 23.1903C22.5207 23.1903 23.6547 23.8441 24.3239 24.83" stroke="#272525" stroke-width="2.55406" stroke-linecap="round" stroke-linejoin="round"/>
<path d="M51.5402 25.0497C50.8966 23.9361 49.6911 23.1903 48.317 23.1903C47.0297 23.1903 45.8957 23.8441 45.2266 24.83" stroke="#272525" stroke-width="2.55406" stroke-linecap="round" stroke-linejoin="round"/>
<path d="M37.3088 47.1473C36.6192 47.6275 35.7815 47.9085 34.8825 47.9085C32.5276 47.9085 30.6223 46.0031 30.6223 43.6483C30.6223 42.4785 31.0922 41.4211 31.8585 40.6498C32.2262 40.282 32.6553 39.9755 33.1355 39.761C32.6553 39.5465 32.2211 39.2451 31.8534 38.8773C31.0922 38.106 30.6172 37.0486 30.6172 35.8788C30.6172 33.524 32.5225 31.6187 34.8774 31.6187C35.7815 31.6187 36.6141 31.8996 37.3037 32.3798" stroke="#272525" stroke-width="2.17095" stroke-linecap="round" stroke-linejoin="round"/>
<path d="M10.5166 48.9914C10.2714 48.9914 10.0262 48.9096 9.82701 48.7462C8.34565 47.5304 6.80811 46.2381 5.13265 44.7874C4.83637 44.5269 4.51456 44.2663 4.18253 44.0007C2.18526 42.3763 -0.302396 40.3586 0.0245237 37.2018C0.22374 35.2914 1.39861 33.5444 3.0945 32.6454C5.669 31.2815 8.81049 32.0375 10.5013 34.3004C11.2368 33.3145 12.2636 32.5841 13.464 32.2163C14.9556 31.7617 16.534 31.9098 17.9081 32.6403C19.7266 33.6057 20.9167 35.4906 21.0036 37.5492C21.1108 40.0726 19.512 41.5284 18.3474 42.5909C17.4177 43.4388 16.4778 44.2561 15.3591 45.2216C13.9595 46.4271 12.5599 47.6071 11.2062 48.736C11.007 48.9045 10.7567 48.9862 10.5115 48.9862L10.5166 48.9914Z" fill="#FF5D17"/>
</g>
<defs>
<clipPath id="clip0_0_502">
<rect width="64.7761" height="60" fill="white" transform="translate(-0.000488281 0.5)"/>
</clipPath>
</defs>
</svg>
