<svg width="24" height="25" viewBox="0 0 24 25" fill="currentColor" xmlns="http://www.w3.org/2000/svg">
<path d="M13.5108 22.3775C13.4453 22.3775 13.3817 22.3747 13.3199 22.3692C12.0358 22.2567 10.2584 20.4949 8.03631 17.1333C6.90419 15.4505 6.26647 13.4841 6.19551 11.4572C6.18094 11.012 6.2028 10.5663 6.26087 10.1246C5.82659 9.68278 4.52923 8.2037 4.89609 6.64009C5.19588 5.3619 6.90801 4.77602 8.29195 4.50943C8.67857 4.43674 9.07835 4.51478 9.40926 4.72752C9.74018 4.94025 9.97713 5.27156 10.0715 5.65347C10.2686 6.49636 10.1639 7.61098 9.76042 8.9672C9.74325 9.72637 9.86671 10.4822 10.1245 11.1964C10.6954 11.464 12.9506 12.5995 14.2969 14.4301C14.8102 12.6769 16.4115 8.65612 20.2365 9.33098C22.2847 9.69168 23.1043 10.9435 23.4308 11.9319C24.0197 13.7114 23.4308 15.8232 22.5465 16.7572C21.2282 18.1497 16.1093 22.3771 13.5108 22.3775ZM8.58044 5.16615C8.52716 5.16612 8.47399 5.17116 8.42165 5.18121C7.64036 5.33178 5.79819 5.79002 5.5624 6.79581C5.22428 8.23895 6.83991 9.7348 6.85634 9.74986C6.89866 9.78847 6.93062 9.83709 6.94928 9.89126C6.96793 9.94543 6.97269 10.0034 6.96311 10.0599C6.89103 10.5158 6.86318 10.9775 6.87995 11.4387C6.94727 13.3375 7.54565 15.1793 8.60714 16.7551C10.6194 19.8009 12.3589 21.5975 13.3801 21.6872C15.5316 21.8696 20.6667 17.7469 22.0499 16.2842C22.7864 15.5053 23.2679 13.6149 22.7812 12.1433C22.3973 10.9822 21.4764 10.242 20.1181 10.0031C15.9402 9.26732 14.7842 15.2795 14.7729 15.3404C14.7601 15.4098 14.7261 15.4736 14.6756 15.523C14.6251 15.5724 14.5606 15.6049 14.4909 15.6162C14.4211 15.6274 14.3496 15.6168 14.2862 15.5858C14.2227 15.5548 14.1704 15.505 14.1364 15.443C12.8904 13.1707 9.75289 11.7782 9.72175 11.7645C9.64097 11.7291 9.57697 11.6639 9.54311 11.5824C9.20869 10.7334 9.05012 9.82527 9.07701 8.91313C9.07727 8.88031 9.08222 8.84769 9.09172 8.81628C9.56536 7.2448 9.52395 6.31293 9.40588 5.80781C9.35971 5.62404 9.25335 5.46101 9.10375 5.34472C8.95415 5.22842 8.76993 5.16556 8.58044 5.16615Z" fill="#555555" stroke="#555555" stroke-width="0.52759"/>
<path d="M4.10389 9.94701C4.03288 9.94699 3.96362 9.92487 3.90574 9.88373C3.84785 9.84258 3.8042 9.78445 3.78084 9.71738L3.20967 8.07883C3.17991 7.99328 3.18528 7.89942 3.22461 7.81782C3.26393 7.73623 3.334 7.67355 3.41945 7.64352L5.07238 7.06175C5.11517 7.04505 5.16089 7.03713 5.2068 7.03848C5.25272 7.03982 5.29789 7.05039 5.33963 7.06957C5.38138 7.08874 5.41883 7.11612 5.44977 7.15007C5.4807 7.18403 5.50449 7.22387 5.5197 7.26721C5.53491 7.31055 5.54125 7.35651 5.53832 7.40235C5.53539 7.4482 5.52327 7.49298 5.50267 7.53403C5.48206 7.57509 5.45341 7.61158 5.41841 7.64133C5.3834 7.67107 5.34277 7.69347 5.29893 7.70718L3.96837 8.17431L4.31402 9.16675L5.68632 8.6825C5.77191 8.65228 5.866 8.6573 5.94789 8.69644C6.02979 8.73559 6.09277 8.80567 6.123 8.89126C6.15322 8.97685 6.14821 9.07094 6.10906 9.15283C6.06991 9.23472 5.99983 9.29771 5.91424 9.32793L4.21785 9.92648C4.18131 9.93975 4.14277 9.94669 4.10389 9.94701Z" fill="#555555" stroke="#555555" stroke-width="0.52759"/>
<path d="M9.7232 7.98946C9.64233 7.98955 9.56405 7.961 9.50223 7.90887C9.44041 7.85674 9.39904 7.7844 9.38547 7.70468C9.3719 7.62497 9.38699 7.54302 9.42808 7.47337C9.46916 7.40372 9.53359 7.35087 9.60992 7.32418L11.629 6.61545L11.2834 5.62301L9.86043 6.12094C9.77475 6.15089 9.68068 6.14558 9.59892 6.10617C9.51715 6.06677 9.45439 5.99649 9.42444 5.91081C9.39449 5.82513 9.3998 5.73106 9.4392 5.6493C9.47861 5.56754 9.54888 5.50478 9.63456 5.47482L11.3799 4.86362C11.4223 4.84879 11.4673 4.84248 11.5122 4.84504C11.5571 4.84759 11.601 4.85897 11.6415 4.87851C11.682 4.89806 11.7182 4.92539 11.7481 4.95895C11.7781 4.9925 11.8011 5.03163 11.8159 5.07408L12.3867 6.71298C12.4165 6.79853 12.4111 6.89239 12.3718 6.97398C12.3324 7.05558 12.2624 7.11826 12.1769 7.14828L9.8351 7.96961C9.79919 7.98252 9.76136 7.98923 9.7232 7.98946Z" fill="#555555" stroke="#555555" stroke-width="0.52759"/>
<path d="M13.0208 8.90727C12.8471 8.90704 12.6777 8.85289 12.5361 8.75229C12.3945 8.6517 12.2876 8.50962 12.2302 8.34569L10.6796 3.88758C10.6435 3.78384 10.6281 3.67398 10.6344 3.5643C10.6408 3.45463 10.6687 3.34727 10.7166 3.24839C10.7644 3.1495 10.8313 3.06103 10.9134 2.98802C10.9955 2.91502 11.0912 2.85892 11.195 2.82293L12.2689 2.44956C12.4783 2.37695 12.7079 2.39027 12.9074 2.48661C13.107 2.58296 13.2602 2.75447 13.3335 2.96358L14.8835 7.42272C14.9197 7.52648 14.9351 7.63637 14.9289 7.7461C14.9226 7.85583 14.8947 7.96324 14.8468 8.06218C14.7989 8.16111 14.732 8.24963 14.6498 8.32265C14.5677 8.39567 14.4719 8.45176 14.3681 8.48771L13.2945 8.86073C13.2065 8.89143 13.114 8.90717 13.0208 8.90727ZM12.5416 3.08575C12.5247 3.08576 12.508 3.08865 12.492 3.09431L11.4181 3.46733C11.3993 3.47393 11.3819 3.48419 11.3669 3.49752C11.352 3.51085 11.3399 3.52699 11.3312 3.54501C11.3225 3.56295 11.3174 3.58245 11.3163 3.60237C11.3152 3.62228 11.318 3.64223 11.3247 3.66103L12.876 8.12085C12.8893 8.15889 12.9172 8.19008 12.9535 8.20759C12.9898 8.22511 13.0316 8.22751 13.0697 8.21427L14.1436 7.84125C14.1625 7.83476 14.1799 7.82459 14.1948 7.81134C14.2097 7.79808 14.2219 7.78201 14.2306 7.76403C14.2392 7.74606 14.2443 7.72654 14.2454 7.70661C14.2465 7.68668 14.2436 7.66672 14.237 7.6479L12.6871 3.18773C12.6766 3.15791 12.6571 3.13207 12.6313 3.1138C12.6055 3.09554 12.5746 3.08573 12.543 3.08575H12.5416Z" fill="#555555" stroke="#555555" stroke-width="0.52759"/>
<path d="M3.0557 12.3863C2.88182 12.3863 2.71225 12.3322 2.57049 12.2315C2.42872 12.1308 2.32178 11.9885 2.26449 11.8244L0.714227 7.36523C0.641489 7.15561 0.654952 6.92569 0.751657 6.72599C0.848361 6.52629 1.0204 6.37316 1.22995 6.30024L2.30316 5.92688C2.5126 5.85438 2.74225 5.86796 2.94168 5.96466C3.14111 6.06136 3.294 6.23326 3.36678 6.44261L4.91704 10.9017C4.98959 11.1114 4.97604 11.3412 4.87936 11.5409C4.78268 11.7405 4.61076 11.8937 4.40131 11.9667L3.32914 12.3404C3.24116 12.3708 3.14876 12.3863 3.0557 12.3863ZM2.57762 6.56478C2.56071 6.56476 2.54392 6.56765 2.528 6.57333L1.45445 6.94636C1.41632 6.95971 1.38505 6.98763 1.36747 7.024C1.34989 7.06037 1.34745 7.10223 1.36068 7.1404L2.91094 11.5995C2.91736 11.6185 2.92749 11.636 2.94075 11.651C2.954 11.666 2.97011 11.6783 2.98814 11.687C3.00617 11.6957 3.02576 11.7008 3.04576 11.7019C3.06576 11.7029 3.08577 11.7 3.10464 11.6933L4.17819 11.3203C4.21631 11.3069 4.24759 11.279 4.26517 11.2426C4.28274 11.2063 4.28518 11.1644 4.27195 11.1262L2.72169 6.6671C2.7113 6.63718 2.69184 6.61125 2.66602 6.59291C2.64019 6.57457 2.60929 6.56473 2.57762 6.56478Z" fill="#555555" stroke="#555555" stroke-width="0.52759"/>
</svg>
