<svg width="24" height="24" viewBox="0 0 24 24" fill="none" xmlns="http://www.w3.org/2000/svg">
<g clip-path="url(#clip0_0_716)">
<path d="M13.5108 21.8775C13.4453 21.8775 13.3817 21.8747 13.3199 21.8692C12.0358 21.7567 10.2584 19.9949 8.03631 16.6333C6.90419 14.9505 6.26647 12.9841 6.19551 10.9572C6.18094 10.512 6.2028 10.0663 6.26087 9.62459C5.82659 9.18278 4.52923 7.7037 4.89609 6.14009C5.19588 4.8619 6.90801 4.27602 8.29195 4.00943C8.67857 3.93674 9.07835 4.01478 9.40926 4.22752C9.74018 4.44025 9.97713 4.77156 10.0715 5.15347C10.2686 5.99636 10.1639 7.11098 9.76042 8.4672C9.74325 9.22637 9.86671 9.98217 10.1245 10.6964C10.6954 10.964 12.9506 12.0995 14.2969 13.9301C14.8102 12.1769 16.4115 8.15612 20.2365 8.83098C22.2847 9.19168 23.1043 10.4435 23.4308 11.4319C24.0197 13.2114 23.4308 15.3232 22.5465 16.2572C21.2282 17.6497 16.1093 21.8771 13.5108 21.8775ZM8.58044 4.66615C8.52716 4.66612 8.47399 4.67116 8.42165 4.68121C7.64036 4.83178 5.79819 5.29002 5.5624 6.29581C5.22428 7.73895 6.83991 9.2348 6.85634 9.24986C6.89866 9.28847 6.93062 9.33709 6.94928 9.39126C6.96793 9.44543 6.97269 9.50342 6.96311 9.55991C6.89103 10.0158 6.86318 10.4775 6.87995 10.9387C6.94727 12.8375 7.54565 14.6793 8.60714 16.2551C10.6194 19.3009 12.3589 21.0975 13.3801 21.1872C15.5316 21.3696 20.6667 17.2469 22.0499 15.7842C22.7864 15.0053 23.2679 13.1149 22.7812 11.6433C22.3973 10.4822 21.4764 9.74197 20.1181 9.5031C15.9402 8.76732 14.7842 14.7795 14.7729 14.8404C14.7601 14.9098 14.7261 14.9736 14.6756 15.023C14.6251 15.0724 14.5606 15.1049 14.4909 15.1162C14.4211 15.1274 14.3496 15.1168 14.2862 15.0858C14.2227 15.0548 14.1704 15.005 14.1364 14.943C12.8904 12.6707 9.75289 11.2782 9.72175 11.2645C9.64097 11.2291 9.57697 11.1639 9.54311 11.0824C9.20869 10.2334 9.05012 9.32527 9.07701 8.41313C9.07727 8.38031 9.08222 8.34769 9.09172 8.31628C9.56536 6.7448 9.52395 5.81293 9.40588 5.30781C9.35971 5.12404 9.25335 4.96101 9.10375 4.84472C8.95415 4.72842 8.76993 4.66556 8.58044 4.66615Z" fill="white" stroke="white" stroke-width="0.52759"/>
<path d="M4.10365 9.44701C4.03263 9.44699 3.96338 9.42487 3.90549 9.38373C3.84761 9.34258 3.80396 9.28445 3.78059 9.21738L3.20943 7.57883C3.17967 7.49328 3.18504 7.39942 3.22436 7.31782C3.26368 7.23623 3.33375 7.17355 3.41921 7.14352L5.07213 6.56175C5.11493 6.54505 5.16064 6.53713 5.20656 6.53848C5.25247 6.53982 5.29765 6.55039 5.33939 6.56957C5.38113 6.58874 5.41859 6.61612 5.44952 6.65007C5.48046 6.68403 5.50424 6.72387 5.51946 6.76721C5.53467 6.81055 5.541 6.85651 5.53807 6.90235C5.53515 6.9482 5.52302 6.99298 5.50242 7.03403C5.48182 7.07509 5.45316 7.11158 5.41816 7.14133C5.38316 7.17107 5.34253 7.19347 5.29868 7.20718L3.96813 7.67431L4.31377 8.66675L5.68608 8.1825C5.77167 8.15228 5.86576 8.1573 5.94765 8.19644C6.02954 8.23559 6.09253 8.30567 6.12275 8.39126C6.15298 8.47685 6.14796 8.57094 6.10881 8.65283C6.06966 8.73472 5.99959 8.79771 5.914 8.82793L4.21761 9.42648C4.18106 9.43975 4.14253 9.44669 4.10365 9.44701Z" fill="white" stroke="white" stroke-width="0.52759"/>
<path d="M9.72344 7.48946C9.64258 7.48955 9.56429 7.461 9.50247 7.40887C9.44065 7.35674 9.39929 7.2844 9.38572 7.20468C9.37214 7.12497 9.38724 7.04302 9.42832 6.97337C9.46941 6.90372 9.53383 6.85087 9.61017 6.82418L11.6293 6.11545L11.2836 5.12301L9.86067 5.62094C9.77499 5.65089 9.68092 5.64558 9.59916 5.60617C9.5174 5.56677 9.45464 5.49649 9.42468 5.41081C9.39473 5.32513 9.40004 5.23106 9.43945 5.1493C9.47885 5.06754 9.54913 5.00478 9.63481 4.97482L11.3801 4.36362C11.4226 4.34879 11.4675 4.34248 11.5124 4.34504C11.5573 4.34759 11.6012 4.35897 11.6417 4.37851C11.6822 4.39806 11.7185 4.42539 11.7484 4.45895C11.7783 4.4925 11.8013 4.53163 11.8161 4.57408L12.3869 6.21298C12.4167 6.29853 12.4113 6.39239 12.372 6.47398C12.3327 6.55558 12.2626 6.61826 12.1772 6.64828L9.83535 7.46961C9.79944 7.48252 9.7616 7.48923 9.72344 7.48946Z" fill="white" stroke="white" stroke-width="0.52759"/>
<path d="M13.0205 8.40727C12.8468 8.40704 12.6775 8.35289 12.5359 8.25229C12.3943 8.1517 12.2874 8.00962 12.23 7.84569L10.6794 3.38758C10.6432 3.28384 10.6279 3.17398 10.6342 3.0643C10.6405 2.95463 10.6684 2.84727 10.7163 2.74839C10.7642 2.6495 10.8311 2.56103 10.9132 2.48802C10.9953 2.41502 11.091 2.35892 11.1948 2.32293L12.2686 1.94956C12.478 1.87695 12.7076 1.89027 12.9072 1.98661C13.1067 2.08296 13.26 2.25447 13.3333 2.46358L14.8832 6.92272C14.9195 7.02648 14.9349 7.13637 14.9286 7.2461C14.9223 7.35583 14.8944 7.46324 14.8466 7.56218C14.7987 7.66111 14.7317 7.74963 14.6496 7.82265C14.5674 7.89567 14.4717 7.95176 14.3678 7.98771L13.2943 8.36073C13.2063 8.39143 13.1137 8.40717 13.0205 8.40727ZM12.5414 2.58575C12.5245 2.58576 12.5077 2.58865 12.4918 2.59431L11.4179 2.96733C11.399 2.97393 11.3816 2.98419 11.3667 2.99752C11.3518 3.01085 11.3396 3.02699 11.331 3.04501C11.3222 3.06295 11.3172 3.08245 11.316 3.10237C11.3149 3.12228 11.3178 3.14223 11.3245 3.16103L12.8757 7.62085C12.8891 7.65889 12.917 7.69008 12.9533 7.70759C12.9896 7.72511 13.0314 7.72751 13.0694 7.71427L14.1433 7.34125C14.1622 7.33476 14.1796 7.32459 14.1945 7.31134C14.2095 7.29808 14.2216 7.28201 14.2303 7.26403C14.239 7.24606 14.244 7.22654 14.2451 7.20661C14.2463 7.18668 14.2434 7.16672 14.2368 7.1479L12.6868 2.68773C12.6763 2.65791 12.6569 2.63207 12.631 2.6138C12.6052 2.59554 12.5744 2.58573 12.5428 2.58575H12.5414Z" fill="white" stroke="white" stroke-width="0.52759"/>
<path d="M3.0557 11.8863C2.88182 11.8863 2.71225 11.8322 2.57049 11.7315C2.42872 11.6308 2.32178 11.4885 2.26449 11.3244L0.714227 6.86523C0.641489 6.65561 0.654952 6.42569 0.751657 6.22599C0.848361 6.02629 1.0204 5.87316 1.22995 5.80024L2.30316 5.42688C2.5126 5.35438 2.74225 5.36796 2.94168 5.46466C3.14111 5.56136 3.294 5.73326 3.36678 5.94261L4.91704 10.4017C4.98959 10.6114 4.97604 10.8412 4.87936 11.0409C4.78268 11.2405 4.61076 11.3937 4.40131 11.4667L3.32914 11.8404C3.24116 11.8708 3.14876 11.8863 3.0557 11.8863ZM2.57762 6.06478C2.56071 6.06476 2.54392 6.06765 2.528 6.07333L1.45445 6.44636C1.41632 6.45971 1.38505 6.48763 1.36747 6.524C1.34989 6.56037 1.34745 6.60223 1.36068 6.6404L2.91094 11.0995C2.91736 11.1185 2.92749 11.136 2.94075 11.151C2.954 11.166 2.97011 11.1783 2.98814 11.187C3.00617 11.1957 3.02576 11.2008 3.04576 11.2019C3.06576 11.2029 3.08577 11.2 3.10464 11.1933L4.17819 10.8203C4.21631 10.8069 4.24759 10.779 4.26517 10.7426C4.28274 10.7063 4.28518 10.6644 4.27195 10.6262L2.72169 6.1671C2.7113 6.13718 2.69184 6.11125 2.66602 6.09291C2.64019 6.07457 2.60929 6.06473 2.57762 6.06478Z" fill="white" stroke="white" stroke-width="0.52759"/>
</g>
<defs>
<clipPath id="clip0_0_716">
<rect width="24" height="24" fill="white"/>
</clipPath>
</defs>
</svg>
