<svg width="16" height="15" viewBox="0 0 16 15" fill="none" xmlns="http://www.w3.org/2000/svg">
<path d="M11.6387 1.34772C12.0385 1.33274 12.4367 1.39763 12.8076 1.53717L12.8096 1.53815C13.6698 1.8586 14.4249 2.57147 14.8535 3.51471C15.1775 4.22776 15.4846 5.42527 14.9912 7.01373C14.6257 8.19098 13.6646 9.55709 12.2129 10.8292C10.874 12.0023 9.33566 12.8934 8 13.3047C6.66435 12.8934 5.12614 12.0024 3.78711 10.8292C2.33553 9.55712 1.37439 8.191 1.00879 7.01373C0.515538 5.42516 0.82251 4.22767 1.14648 3.51471C1.57511 2.57143 2.33022 1.8586 3.19043 1.53815L3.19238 1.53717C3.56334 1.39763 3.96147 1.33274 4.36133 1.34772C4.76126 1.36271 5.1529 1.45747 5.51074 1.62408L5.51367 1.62506C6.18813 1.93496 6.82836 2.51487 7.36523 3.36725C7.50255 3.58528 7.74233 3.71783 8 3.71783C8.25766 3.71784 8.49744 3.58527 8.63477 3.36725C9.17167 2.51492 9.8119 1.93494 10.4863 1.62506L10.4893 1.62408C10.8471 1.45747 11.2387 1.36271 11.6387 1.34772Z" stroke="#666666" stroke-width="1.5" stroke-linejoin="round"/>
</svg>
