<svg width="61" height="61" viewBox="0 0 61 61" fill="none" xmlns="http://www.w3.org/2000/svg">
<g clip-path="url(#clip0_0_373)">
<path d="M30.5 60.5C47.0685 60.5 60.5 47.0685 60.5 30.5C60.5 13.9315 47.0685 0.5 30.5 0.5C13.9315 0.5 0.5 13.9315 0.5 30.5C0.5 47.0685 13.9315 60.5 30.5 60.5Z" fill="white"/>
<path d="M14.3276 23.5172C14.3276 22.0512 15.5127 20.8661 16.9788 20.8661C18.4448 20.8661 19.6299 22.0512 19.6299 23.5172C19.6299 24.9832 18.4448 26.1683 16.9788 26.1683C15.5127 26.1683 14.3276 24.9832 14.3276 23.5172Z" fill="#272525"/>
<path d="M41.3699 23.5172C41.3699 22.0512 42.555 20.8661 44.021 20.8661C45.487 20.8661 46.6721 22.0512 46.6721 23.5172C46.6721 24.9832 45.487 26.1683 44.021 26.1683C42.555 26.1683 41.3699 24.9832 41.3699 23.5172Z" fill="#272525"/>
<path d="M15.0122 38.6935H45.9879" stroke="#272525" stroke-width="2.17095" stroke-linecap="round" stroke-linejoin="round"/>
</g>
<defs>
<clipPath id="clip0_0_373">
<rect width="60" height="60" fill="white" transform="translate(0.5 0.5)"/>
</clipPath>
</defs>
</svg>
