<svg width="24" height="25" viewBox="0 0 24 25" fill="currentColor" xmlns="http://www.w3.org/2000/svg">
<mask id="mask0_507_2705" style="mask-type:alpha" maskUnits="userSpaceOnUse" x="3" y="0" width="13" height="24">
<path d="M15.6754 0.562378H3.53998V23.5624H15.6754L13.6282 19.3934L12.4508 18.2873V14.63L14.0207 13.185L15.6754 13.8272V0.562378Z" fill="currentColor"/>
</mask>
<g mask="url(#mask0_507_2705)">
<path d="M8.06959 19.9864C7.76229 19.9864 7.51319 20.2324 7.51319 20.5359C7.51316 20.8394 7.76226 21.0854 8.06959 21.0854L8.81148 21.0855C8.96516 21.0855 9.10425 21.024 9.20495 20.9245C9.30561 20.8251 9.36791 20.6877 9.36788 20.5359C9.36791 20.2324 9.11881 19.9864 8.81148 19.9864L8.06959 19.9864Z" fill="currentColor"/>
<path d="M7.32748 17.788C7.02023 17.788 6.77111 18.0341 6.77108 18.3376C6.77108 18.641 7.02021 18.8871 7.32748 18.8871L8.81124 18.8871C8.96489 18.8871 9.10401 18.8256 9.20468 18.7261C9.30535 18.6267 9.36764 18.4893 9.36764 18.3375C9.36764 18.0341 9.11852 17.788 8.81124 17.788L7.32748 17.788Z" fill="currentColor"/>
<path d="M8.06959 15.59C7.76229 15.5899 7.51322 15.836 7.51319 16.1395C7.51316 16.443 7.76226 16.689 8.06959 16.689L8.81148 16.6891C8.96516 16.6891 9.10425 16.6276 9.20495 16.5281C9.30561 16.4287 9.36791 16.2913 9.36788 16.1395C9.36791 15.836 9.11881 15.59 8.81148 15.59L8.06959 15.59Z" fill="currentColor"/>
<path d="M7.3275 13.3919C7.02025 13.3919 6.77113 13.6379 6.7711 13.9414C6.77108 14.2449 7.0202 14.491 7.3275 14.491H8.81123C8.96489 14.491 9.104 14.4295 9.20467 14.33C9.30534 14.2306 9.36763 14.0932 9.36761 13.9414C9.36763 13.638 9.11851 13.3919 8.81121 13.3919L7.3275 13.3919Z" fill="currentColor"/>
<path d="M8.06957 11.1936C7.76224 11.1936 7.5132 11.4396 7.51317 11.7431C7.5132 12.0466 7.7623 12.2926 8.06957 12.2927H8.81144C8.96511 12.2927 9.10421 12.2312 9.20487 12.1317C9.30554 12.0323 9.36784 11.8949 9.36784 11.7431C9.36781 11.4396 9.11871 11.1936 8.81144 11.1936H8.06957Z" fill="currentColor"/>
<path d="M9.55513 1.1665C9.10929 1.1665 8.69009 1.33795 8.37479 1.64935C8.05949 1.96076 7.88591 2.37473 7.88591 2.81512L7.88591 3.24432C7.88588 3.76572 7.6803 4.25595 7.30698 4.62466C6.7789 5.14621 6.46649 5.82351 6.41172 6.55155C5.96937 6.75618 5.66209 7.19986 5.66209 7.71331L5.66209 8.70253C5.32809 8.79428 5.02192 8.96927 4.77017 9.21791L4.76862 9.21944C4.38379 9.60036 4.17246 10.1065 4.17356 10.6447C4.17435 11.0217 4.1755 11.4214 4.17726 11.7782C4.18119 12.5842 4.31879 13.3752 4.58625 14.1288L4.6016 14.1721C5.01224 15.3268 5.03663 16.6039 4.67034 17.7681L4.53891 18.186C4.2954 18.96 4.17194 19.7634 4.17194 20.5738C4.17194 22.0674 5.40227 23.2826 6.91454 23.2826H12.1938C12.9264 23.2826 13.6151 23.0008 14.1331 22.4892C14.6511 21.9776 14.9364 21.2973 14.9364 20.5738C14.9364 19.7634 14.813 18.96 14.5695 18.186L14.438 17.7681C14.0717 16.6039 14.0961 15.3268 14.5066 14.1723L14.522 14.1291C14.7895 13.3753 14.9272 12.5843 14.9311 11.7783C14.9328 11.4215 14.934 11.0218 14.9348 10.6448C14.9359 10.1065 14.7246 9.60038 14.3397 9.21947C14.0891 8.97142 13.7842 8.79643 13.4517 8.70406L13.4517 7.71333C13.4517 7.37084 13.3167 7.04886 13.0714 6.80664C12.9615 6.69808 12.8353 6.61158 12.6983 6.54894C12.6429 5.82188 12.3306 5.14562 11.8032 4.62471C11.4299 4.25603 11.2243 3.7658 11.2242 3.24435L11.2242 2.81515C11.2243 2.37473 11.0507 1.96074 10.7354 1.64935C10.4201 1.33797 10.001 1.1665 9.55513 1.1665ZM13.822 10.6425C13.8212 11.0185 13.82 11.4171 13.8183 11.7729C13.815 12.4567 13.6984 13.1271 13.4719 13.7655L13.4569 13.8079C12.9675 15.1838 12.9386 16.7061 13.3753 18.0942L13.5068 18.5121C13.717 19.1804 13.8236 19.874 13.8236 20.5738C13.8236 21.0038 13.6541 21.408 13.3463 21.712C13.0384 22.016 12.6292 22.1835 12.1938 22.1835L6.91459 22.1835C6.0159 22.1834 5.28479 21.4614 5.28476 20.5738C5.28476 19.8741 5.39138 19.1804 5.60164 18.5121L5.73307 18.0942C6.16979 16.7061 6.14088 15.1838 5.65158 13.8079L5.63652 13.7655C5.40993 13.1271 5.29339 12.4567 5.29008 11.773C5.28833 11.4171 5.28717 11.0185 5.28639 10.6425C5.28586 10.3982 5.38176 10.1686 5.55631 9.9958C5.73115 9.82312 5.96452 9.72734 6.21209 9.72732L12.8963 9.72734C13.1442 9.72734 13.3771 9.8227 13.552 9.9958C13.7266 10.1686 13.8225 10.3982 13.822 10.6425ZM12.339 7.71328L12.339 8.62826H6.77492L6.77492 7.71328C6.77497 7.61225 6.85817 7.53013 6.96041 7.53008L12.1535 7.53008C12.2557 7.5301 12.339 7.6123 12.339 7.71328ZM10.1115 2.81507L10.1115 3.2443C10.1115 4.0593 10.4329 4.82553 11.0164 5.40182C11.3044 5.68632 11.4921 6.04332 11.563 6.43104L7.54721 6.43102C7.61816 6.04329 7.8058 5.68632 8.09388 5.4018C8.67737 4.82551 8.99873 4.05928 8.9987 3.24427C8.9697 2.8187 8.9916 2.27896 9.55513 2.26551C9.86191 2.26556 10.1115 2.51208 10.1115 2.81507Z" fill="currentColor"/>
<path d="M8.06959 19.9864C7.76229 19.9864 7.51319 20.2324 7.51319 20.5359C7.51316 20.8394 7.76226 21.0854 8.06959 21.0854L8.81148 21.0855C8.96516 21.0855 9.10425 21.024 9.20495 20.9245C9.30561 20.8251 9.36791 20.6877 9.36788 20.5359C9.36791 20.2324 9.11881 19.9864 8.81148 19.9864L8.06959 19.9864Z" stroke="currentColor" stroke-width="0.2"/>
<path d="M7.32748 17.788C7.02023 17.788 6.77111 18.0341 6.77108 18.3376C6.77108 18.641 7.02021 18.8871 7.32748 18.8871L8.81124 18.8871C8.96489 18.8871 9.10401 18.8256 9.20468 18.7261C9.30535 18.6267 9.36764 18.4893 9.36764 18.3375C9.36764 18.0341 9.11852 17.788 8.81124 17.788L7.32748 17.788Z" stroke="currentColor" stroke-width="0.2"/>
<path d="M8.06959 15.59C7.76229 15.5899 7.51322 15.836 7.51319 16.1395C7.51316 16.443 7.76226 16.689 8.06959 16.689L8.81148 16.6891C8.96516 16.6891 9.10425 16.6276 9.20495 16.5281C9.30561 16.4287 9.36791 16.2913 9.36788 16.1395C9.36791 15.836 9.11881 15.59 8.81148 15.59L8.06959 15.59Z" stroke="currentColor" stroke-width="0.2"/>
<path d="M7.3275 13.3919C7.02025 13.3919 6.77113 13.6379 6.7711 13.9414C6.77108 14.2449 7.0202 14.491 7.3275 14.491H8.81123C8.96489 14.491 9.104 14.4295 9.20467 14.33C9.30534 14.2306 9.36763 14.0932 9.36761 13.9414C9.36763 13.638 9.11851 13.3919 8.81121 13.3919L7.3275 13.3919Z" stroke="currentColor" stroke-width="0.2"/>
<path d="M8.06957 11.1936C7.76224 11.1936 7.5132 11.4396 7.51317 11.7431C7.5132 12.0466 7.7623 12.2926 8.06957 12.2927H8.81144C8.96511 12.2927 9.10421 12.2312 9.20487 12.1317C9.30554 12.0323 9.36784 11.8949 9.36784 11.7431C9.36781 11.4396 9.11871 11.1936 8.81144 11.1936H8.06957Z" stroke="currentColor" stroke-width="0.2"/>
<path d="M9.55513 1.1665C9.10929 1.1665 8.69009 1.33795 8.37479 1.64935C8.05949 1.96076 7.88591 2.37473 7.88591 2.81512L7.88591 3.24432C7.88588 3.76572 7.6803 4.25595 7.30698 4.62466C6.7789 5.14621 6.46649 5.82351 6.41172 6.55155C5.96937 6.75618 5.66209 7.19986 5.66209 7.71331L5.66209 8.70253C5.32809 8.79428 5.02192 8.96927 4.77017 9.21791L4.76862 9.21944C4.38379 9.60036 4.17246 10.1065 4.17356 10.6447C4.17435 11.0217 4.1755 11.4214 4.17726 11.7782C4.18119 12.5842 4.31879 13.3752 4.58625 14.1288L4.6016 14.1721C5.01224 15.3268 5.03663 16.6039 4.67034 17.7681L4.53891 18.186C4.2954 18.96 4.17194 19.7634 4.17194 20.5738C4.17194 22.0674 5.40227 23.2826 6.91454 23.2826H12.1938C12.9264 23.2826 13.6151 23.0008 14.1331 22.4892C14.6511 21.9776 14.9364 21.2973 14.9364 20.5738C14.9364 19.7634 14.813 18.96 14.5695 18.186L14.438 17.7681C14.0717 16.6039 14.0961 15.3268 14.5066 14.1723L14.522 14.1291C14.7895 13.3753 14.9272 12.5843 14.9311 11.7783C14.9328 11.4215 14.934 11.0218 14.9348 10.6448C14.9359 10.1065 14.7246 9.60038 14.3397 9.21947C14.0891 8.97142 13.7842 8.79643 13.4517 8.70406L13.4517 7.71333C13.4517 7.37084 13.3167 7.04886 13.0714 6.80664C12.9615 6.69808 12.8353 6.61158 12.6983 6.54894C12.6429 5.82188 12.3306 5.14562 11.8032 4.62471C11.4299 4.25603 11.2243 3.7658 11.2242 3.24435L11.2242 2.81515C11.2243 2.37473 11.0507 1.96074 10.7354 1.64935C10.4201 1.33797 10.001 1.1665 9.55513 1.1665ZM13.822 10.6425C13.8212 11.0185 13.82 11.4171 13.8183 11.7729C13.815 12.4567 13.6984 13.1271 13.4719 13.7655L13.4569 13.8079C12.9675 15.1838 12.9386 16.7061 13.3753 18.0942L13.5068 18.5121C13.717 19.1804 13.8236 19.874 13.8236 20.5738C13.8236 21.0038 13.6541 21.408 13.3463 21.712C13.0384 22.016 12.6292 22.1835 12.1938 22.1835L6.91459 22.1835C6.0159 22.1834 5.28479 21.4614 5.28476 20.5738C5.28476 19.8741 5.39138 19.1804 5.60164 18.5121L5.73307 18.0942C6.16979 16.7061 6.14088 15.1838 5.65158 13.8079L5.63652 13.7655C5.40993 13.1271 5.29339 12.4567 5.29008 11.773C5.28833 11.4171 5.28717 11.0185 5.28639 10.6425C5.28586 10.3982 5.38176 10.1686 5.55631 9.9958C5.73115 9.82312 5.96452 9.72734 6.21209 9.72732L12.8963 9.72734C13.1442 9.72734 13.3771 9.8227 13.552 9.9958C13.7266 10.1686 13.8225 10.3982 13.822 10.6425ZM12.339 7.71328L12.339 8.62826H6.77492L6.77492 7.71328C6.77497 7.61225 6.85817 7.53013 6.96041 7.53008L12.1535 7.53008C12.2557 7.5301 12.339 7.6123 12.339 7.71328ZM10.1115 2.81507L10.1115 3.2443C10.1115 4.0593 10.4329 4.82553 11.0164 5.40182C11.3044 5.68632 11.4921 6.04332 11.563 6.43104L7.54721 6.43102C7.61816 6.04329 7.8058 5.68632 8.09388 5.4018C8.67737 4.82551 8.99873 4.05928 8.9987 3.24427C8.9697 2.8187 8.9916 2.27896 9.55513 2.26551C9.86191 2.26556 10.1115 2.51208 10.1115 2.81507Z" stroke="currentColor" stroke-width="0.2"/>
</g>
<path d="M19.1692 12.5928C19.0046 12.5928 18.8401 12.6476 18.7304 12.8122L18.2367 13.4155C17.9077 13.7994 17.4689 14.0188 16.9752 14.0188C16.4816 14.0188 15.988 13.7994 15.7138 13.4155L15.2201 12.8122C15.1104 12.6476 14.9459 12.5928 14.7813 12.5928C12.6971 12.5928 11.4905 14.1285 11.4905 16.7064C11.4905 18.0775 12.1487 19.2293 13.1359 19.9972C13.3005 21.9717 14.9459 23.5623 16.9752 23.5623C19.0046 23.5623 20.65 21.9717 20.8146 19.9972C21.8018 19.2293 22.46 18.0775 22.46 16.7064C22.46 14.1285 21.2534 12.5928 19.1692 12.5928ZM14.8362 18.0227C14.891 18.2421 14.9459 18.4615 15.0556 18.626C14.891 18.9003 14.7813 19.2293 14.7813 19.6133V19.723C14.7813 20.1069 14.891 20.4908 15.0556 20.7651C15.4395 21.4233 16.1525 21.9169 16.9752 21.9169C17.798 21.9169 18.511 21.4781 18.8949 20.7651C19.0595 20.436 19.1692 20.1069 19.1692 19.723C19.1692 19.6681 19.1692 19.6681 19.1692 19.6133C19.1692 19.2842 19.0595 18.9003 18.8949 18.626C19.0046 18.4615 19.0595 18.2421 19.1143 18.0227C19.268 18.2227 19.558 18.6554 19.6628 19.2842C19.7676 19.913 19.6336 20.4164 19.5531 20.6554C19.1692 21.6975 18.1819 22.4654 16.9752 22.4654C15.7686 22.4654 14.7813 21.6975 14.3974 20.6554C14.3189 20.4056 14.2255 19.9944 14.274 19.4899C14.3438 18.7639 14.6683 18.2525 14.8362 18.0227ZM18.0722 17.5291C18.0748 17.6022 18.0811 17.9781 17.7911 18.2901C17.4696 18.636 17.0395 18.6282 16.9752 18.626C16.8972 18.624 16.5051 18.6056 16.1937 18.2832C15.8993 17.9786 15.8805 17.6132 15.8783 17.5291C15.8818 17.4352 15.9057 17.0959 16.1731 16.8023C16.4856 16.4592 16.897 16.4352 16.9752 16.4321C17.0406 16.4306 17.4775 16.4277 17.798 16.7818C18.0751 17.0879 18.0743 17.4499 18.0722 17.5291ZM15.9331 19.4487C16.2622 19.6133 16.5913 19.723 16.9752 19.723C17.3592 19.723 17.7431 19.6133 18.0174 19.4487C18.0342 19.5048 18.1614 19.9554 17.8734 20.3674C17.5558 20.8218 17.0188 20.8208 16.9752 20.8199C16.845 20.8199 16.3455 20.7505 16.0566 20.244C15.8576 19.8953 15.9135 19.5483 15.9331 19.4487ZM20.65 18.626C20.3758 17.6388 19.7176 16.816 18.8401 16.3224C18.4561 15.7191 17.7431 15.2803 16.9752 15.2803C16.2074 15.2803 15.4944 15.7191 15.1104 16.3224C14.2329 16.8709 13.5747 17.6936 13.3005 18.626C12.8617 18.0775 12.5874 17.4194 12.5874 16.7064C12.5874 15.6094 12.8617 13.8543 14.5071 13.6897L14.8362 14.0737C15.3847 14.7318 16.1525 15.1158 16.9752 15.1158C17.798 15.1158 18.6207 14.7318 19.1143 14.0737L19.4434 13.6897C21.1437 13.8543 21.3631 15.6094 21.3631 16.7064C21.3631 17.4194 21.0888 18.1324 20.65 18.626Z" fill="currentColor"/>
</svg>
