<svg width="61" height="61" viewBox="0 0 61 61" fill="none" xmlns="http://www.w3.org/2000/svg">
<g clip-path="url(#clip0_0_399)">
<path d="M59.928 37.6219C63.7339 21.4964 53.747 5.33882 37.6215 1.53286C21.496 -2.2731 5.33837 7.71385 1.53241 23.8393C-2.27355 39.9648 7.7134 56.1224 23.8389 59.9284C39.9644 63.7344 56.122 53.7474 59.928 37.6219Z" fill="white"/>
<path d="M14.5576 23.7472C14.5576 22.2863 15.7427 21.0961 17.2087 21.0961C18.6748 21.0961 19.8598 22.2812 19.8598 23.7472C19.8598 25.2132 18.6748 26.3983 17.2087 26.3983C15.7427 26.3983 14.5576 25.2132 14.5576 23.7472Z" fill="#272525"/>
<path d="M41.5999 23.7472C41.5999 22.2863 42.7849 21.0961 44.251 21.0961C45.717 21.0961 46.9021 22.2812 46.9021 23.7472C46.9021 25.2132 45.717 26.3983 44.251 26.3983C42.7849 26.3983 41.5999 25.2132 41.5999 23.7472Z" fill="#272525"/>
<path d="M46.8615 35.7512C44.7212 42.6268 38.3105 47.6174 30.7301 47.6174C23.1496 47.6174 16.7389 42.6268 14.5986 35.7512" stroke="#272525" stroke-width="2.17095" stroke-linecap="round" stroke-linejoin="round"/>
<path d="M15.8808 35.0157L12.8057 36.4869" stroke="#272525" stroke-width="2.17095" stroke-linecap="round" stroke-linejoin="round"/>
<path d="M45.5793 35.0157L48.6544 36.4869" stroke="#272525" stroke-width="2.17095" stroke-linecap="round" stroke-linejoin="round"/>
</g>
<defs>
<clipPath id="clip0_0_399">
<rect width="60" height="60" fill="white" transform="translate(0.72998 0.72998)"/>
</clipPath>
</defs>
</svg>
