<svg width="22" height="24" viewBox="0 0 22 24" fill="none" xmlns="http://www.w3.org/2000/svg">
<path d="M7.56728 12.4715C5.65293 12.4715 4.10637 14.0181 4.13466 15.9183C4.15352 17.1348 4.82307 18.191 5.80853 18.7804C5.47376 18.2664 5.27572 17.6582 5.26629 17.0028C5.238 15.1073 6.78456 13.5607 8.69891 13.5607C9.07612 13.5607 9.43918 13.622 9.77867 13.7305V9.93477C9.42504 9.8829 9.06197 9.85461 8.69891 9.85461C8.68005 9.85461 8.6659 9.85461 8.64704 9.85461V12.646C8.30755 12.5328 7.94449 12.4715 7.56728 12.4715Z" fill="#F00044"/>
<path d="M15.842 1.08447H15.8138H14.833C15.1159 2.50373 15.9128 3.73909 17.0255 4.57839C16.2947 3.61178 15.8515 2.40471 15.842 1.08447Z" fill="#F00044"/>
<path d="M21.6135 10.5666V6.86521C21.241 6.86521 20.8827 6.82749 20.529 6.76147V9.47739C19.2465 9.47739 18.0017 9.22749 16.8324 8.72769C16.0779 8.40706 15.3754 7.99684 14.7294 7.50175L14.7483 15.89C14.7388 17.776 13.9939 19.5442 12.6453 20.8786C11.5467 21.9631 10.1557 22.6562 8.64689 22.8778C8.29325 22.9297 7.93019 22.958 7.56712 22.958C6.66653 22.958 5.79423 22.7929 4.97852 22.4864C5.32272 22.6845 5.67635 22.8684 6.04414 23.0334C6.9353 23.4342 7.88304 23.7312 8.87322 23.9057C9.08068 23.9434 9.28815 23.9717 9.50033 24C9.59463 23.9906 9.68422 23.9764 9.77852 23.9623C11.2874 23.7407 12.6783 23.0475 13.777 21.9631C15.1255 20.6287 15.8705 18.8605 15.8799 16.9745L15.8139 8.58623C16.4552 9.08132 17.1577 9.49625 17.9168 9.81217C19.0862 10.312 20.3357 10.5666 21.6135 10.5666Z" fill="#F00044"/>
<path d="M2.47975 10.8543C1.14537 12.1745 0.38623 13.9851 0.38623 15.8664C0.38623 16.9226 0.621987 17.9458 1.06049 18.8747C1.50843 19.5254 2.02238 20.1336 2.5882 20.6806C1.89036 19.5725 1.51786 18.29 1.51786 16.9509C1.51786 15.0696 2.277 13.259 3.61138 11.934C4.9552 10.5996 6.74223 9.85937 8.64715 9.84522V8.8409C8.29351 8.78903 7.93044 8.76074 7.56738 8.76074C5.6436 8.76546 3.83771 9.50573 2.47975 10.8543Z" fill="#08FFF9"/>
<path d="M20.5291 6.75676V5.74772H20.5197C19.2089 5.74772 18.0018 5.31393 17.0305 4.57837C17.8745 5.69114 19.1099 6.48328 20.5291 6.75676Z" fill="#08FFF9"/>
<path d="M8.50548 20.3364C8.95342 20.3599 9.3825 20.2986 9.77857 20.1713C11.146 19.7234 12.1314 18.4503 12.1314 16.9509L12.1361 11.3399V1.08448H14.8332C14.7625 0.730846 14.7247 0.372496 14.72 0H10.9998V10.246L10.9951 15.857C10.9951 17.3564 10.0096 18.6295 8.64222 19.0774C8.24615 19.2095 7.81707 19.2708 7.36914 19.2425C6.7986 19.2095 6.26579 19.0397 5.80371 18.7662C6.38839 19.6668 7.37857 20.2751 8.50548 20.3364Z" fill="#08FFF9"/>
<path d="M20.529 9.48205V6.76142C19.1097 6.48794 17.8744 5.6958 17.0304 4.58303C15.9176 3.74373 15.1207 2.50837 14.8378 1.08911H12.1408V11.3351L12.1361 16.9461C12.1361 18.4455 11.1506 19.7186 9.78321 20.1665C9.38714 20.2986 8.95806 20.3599 8.51012 20.3316C7.37849 20.2703 6.39303 19.662 5.81306 18.7709C4.8276 18.1862 4.15805 17.1253 4.13919 15.9088C4.1109 14.0133 5.65746 12.4667 7.57181 12.4667C7.94902 12.4667 8.31208 12.528 8.65157 12.6365V9.84511C6.74666 9.85926 4.95963 10.5995 3.61581 11.9339C2.27671 13.2589 1.51758 15.0695 1.51758 16.9508C1.51758 18.2899 1.89007 19.5724 2.58791 20.6805C3.30461 21.3783 4.10619 21.9819 4.97849 22.4864C5.7942 22.7976 6.6665 22.9579 7.56709 22.9579C7.93016 22.9579 8.29323 22.9296 8.64686 22.8777C10.1557 22.6561 11.5467 21.963 12.6453 20.8785C13.9938 19.5441 14.7388 17.776 14.7482 15.8899L14.7294 7.50169C15.3706 7.99678 16.0732 8.41171 16.8323 8.72763C18.0017 9.22743 19.2512 9.48205 20.529 9.48205Z" fill="black"/>
</svg>
