<svg width="12" height="12" viewBox="0 0 12 12" fill="none" xmlns="http://www.w3.org/2000/svg">
<path d="M5.35 11.25C5.35 11.609 5.64101 11.9 6 11.9C6.35899 11.9 6.65 11.609 6.65 11.25L5.35 11.25ZM6.45962 2.29038C6.20578 2.03654 5.79422 2.03654 5.54038 2.29038L1.40381 6.42696C1.14997 6.6808 1.14997 7.09235 1.40381 7.34619C1.65765 7.60003 2.0692 7.60003 2.32304 7.34619L6 3.66924L9.67696 7.34619C9.9308 7.60003 10.3424 7.60003 10.5962 7.34619C10.85 7.09235 10.85 6.6808 10.5962 6.42696L6.45962 2.29038ZM6.65 11.25L6.65 2.75L5.35 2.75L5.35 11.25L6.65 11.25Z" fill="#746BFA"/>
</svg>
