<svg width="17" height="22" viewBox="0 0 17 22" fill="none" xmlns="http://www.w3.org/2000/svg">
<path d="M0.495898 10.7801C-0.585018 8.78036 0.159829 6.283 2.15956 5.20209L10.8662 0.495898C12.8659 -0.585018 15.3633 0.15983 16.4442 2.15956C17.5251 4.15929 16.7802 6.65665 14.7805 7.73757L6.07391 12.4438C4.07417 13.5247 1.57681 12.7798 0.495898 10.7801Z" fill="#E51814"/>
<path d="M0.55338 19.4706C-0.527536 17.4709 0.217311 14.9735 2.21704 13.8926L10.9237 9.18642C12.9234 8.10551 15.4207 8.85036 16.5017 10.8501C17.5826 12.8498 16.8377 15.3472 14.838 16.4281L6.13139 21.1343C4.13166 22.2152 1.6343 21.4704 0.55338 19.4706Z" fill="#E51814"/>
<path d="M11.9658 10.9101L6.15885 14.2628L6.15885 7.55748L11.9658 10.9101Z" fill="white"/>
</svg>
