<svg width="24" height="24" viewBox="0 0 24 24" fill="none" xmlns="http://www.w3.org/2000/svg">
<g clip-path="url(#clip0_0_710)">
<mask id="mask0_0_710" style="mask-type:alpha" maskUnits="userSpaceOnUse" x="3" y="0" width="13" height="24">
<path d="M15.6753 0.0623779H3.53992V23.0624H15.6753L13.6282 18.8934L12.4507 17.7873V14.13L14.0206 12.685L15.6753 13.3272V0.0623779Z" fill="#D9D9D9"/>
</mask>
<g mask="url(#mask0_0_710)">
<path d="M8.06953 19.4864C7.76223 19.4864 7.51313 19.7324 7.51313 20.0359C7.5131 20.3394 7.7622 20.5854 8.06953 20.5854L8.81142 20.5855C8.9651 20.5855 9.10419 20.524 9.20489 20.4245C9.30555 20.3251 9.36785 20.1877 9.36782 20.0359C9.36785 19.7324 9.11875 19.4864 8.81142 19.4864L8.06953 19.4864Z" fill="white"/>
<path d="M7.32742 17.288C7.02017 17.288 6.77105 17.5341 6.77102 17.8376C6.77102 18.141 7.02015 18.3871 7.32742 18.3871L8.81118 18.3871C8.96483 18.3871 9.10395 18.3256 9.20462 18.2261C9.30529 18.1267 9.36758 17.9893 9.36758 17.8375C9.36758 17.5341 9.11845 17.288 8.81118 17.288L7.32742 17.288Z" fill="white"/>
<path d="M8.06953 15.09C7.76223 15.0899 7.51316 15.336 7.51313 15.6395C7.5131 15.943 7.7622 16.189 8.06953 16.189L8.81142 16.1891C8.9651 16.1891 9.10419 16.1276 9.20489 16.0281C9.30555 15.9287 9.36785 15.7913 9.36782 15.6395C9.36785 15.336 9.11875 15.09 8.81142 15.09L8.06953 15.09Z" fill="white"/>
<path d="M7.32744 12.8919C7.02019 12.8919 6.77107 13.1379 6.77104 13.4414C6.77102 13.7449 7.02014 13.991 7.32744 13.991H8.81117C8.96482 13.991 9.10394 13.9295 9.20461 13.83C9.30528 13.7306 9.36757 13.5932 9.36755 13.4414C9.36757 13.138 9.11845 12.8919 8.81115 12.8919L7.32744 12.8919Z" fill="white"/>
<path d="M8.06951 10.6936C7.76218 10.6936 7.51314 10.9396 7.51311 11.2431C7.51314 11.5466 7.76223 11.7926 8.06951 11.7927H8.81138C8.96505 11.7927 9.10415 11.7312 9.20481 11.6317C9.30548 11.5323 9.36777 11.3949 9.36777 11.2431C9.36775 10.9396 9.11865 10.6936 8.81137 10.6936H8.06951Z" fill="white"/>
<path d="M9.55507 0.666504C9.10923 0.666504 8.69003 0.837945 8.37473 1.14935C8.05943 1.46076 7.88585 1.87473 7.88585 2.31512L7.88585 2.74432C7.88582 3.26572 7.68024 3.75595 7.30692 4.12466C6.77884 4.64621 6.46643 5.32351 6.41166 6.05155C5.96931 6.25618 5.66203 6.69986 5.66203 7.21331L5.66203 8.20253C5.32803 8.29428 5.02186 8.46927 4.77011 8.71791L4.76856 8.71944C4.38373 9.10036 4.1724 9.60652 4.1735 10.1447C4.17429 10.5217 4.17544 10.9214 4.1772 11.2782C4.18113 12.0842 4.31873 12.8752 4.58619 13.6288L4.60153 13.6721C5.01218 14.8268 5.03657 16.1039 4.67028 17.2681L4.53885 17.686C4.29534 18.46 4.17187 19.2634 4.17188 20.0738C4.17188 21.5674 5.40221 22.7826 6.91448 22.7826H12.1937C12.9263 22.7826 13.6151 22.5008 14.1331 21.9892C14.6511 21.4776 14.9364 20.7973 14.9364 20.0738C14.9364 19.2634 14.8129 18.46 14.5694 17.686L14.4379 17.2681C14.0717 16.1039 14.0961 14.8268 14.5066 13.6723L14.5219 13.6291C14.7894 12.8753 14.9271 12.0843 14.931 11.2783C14.9327 10.9215 14.9339 10.5218 14.9347 10.1448C14.9358 9.60655 14.7245 9.10038 14.3396 8.71947C14.089 8.47142 13.7842 8.29643 13.4516 8.20406L13.4517 7.21333C13.4517 6.87084 13.3166 6.54886 13.0714 6.30664C12.9615 6.19808 12.8352 6.11158 12.6982 6.04894C12.6428 5.32188 12.3305 4.64562 11.8031 4.12471C11.4298 3.75603 11.2242 3.2658 11.2242 2.74435L11.2242 2.31515C11.2242 1.87473 11.0506 1.46074 10.7354 1.14935C10.4201 0.837972 10.0009 0.666504 9.55507 0.666504ZM13.8219 10.1425C13.8211 10.5185 13.82 10.9171 13.8183 11.2729C13.8149 11.9567 13.6983 12.6271 13.4718 13.2655L13.4568 13.3079C12.9675 14.6838 12.9386 16.2061 13.3753 17.5942L13.5068 18.0121C13.717 18.6804 13.8236 19.374 13.8236 20.0738C13.8236 20.5038 13.654 20.908 13.3462 21.212C13.0384 21.516 12.6291 21.6835 12.1938 21.6835L6.91453 21.6835C6.01584 21.6834 5.28473 20.9614 5.2847 20.0738C5.2847 19.3741 5.39132 18.6804 5.60157 18.0121L5.73301 17.5942C6.16972 16.2061 6.14082 14.6838 5.65151 13.3079L5.63646 13.2655C5.40986 12.6271 5.29333 11.9567 5.29002 11.273C5.28827 10.9171 5.28711 10.5185 5.28633 10.1425C5.2858 9.89824 5.38169 9.66862 5.55625 9.4958C5.73109 9.32312 5.96445 9.22734 6.21203 9.22732L12.8962 9.22734C13.1442 9.22734 13.3771 9.3227 13.5519 9.4958C13.7266 9.66856 13.8225 9.89824 13.8219 10.1425ZM12.3389 7.21328L12.3389 8.12826H6.77486L6.77486 7.21328C6.77491 7.11225 6.85811 7.03013 6.96035 7.03008L12.1535 7.03008C12.2557 7.0301 12.3389 7.1123 12.3389 7.21328ZM10.1114 2.31507L10.1114 2.7443C10.1114 3.5593 10.4328 4.32553 11.0163 4.90182C11.3043 5.18632 11.492 5.54332 11.563 5.93104L7.54715 5.93102C7.6181 5.54329 7.80574 5.18632 8.09382 4.9018C8.67731 4.32551 8.99867 3.55928 8.99864 2.74427C8.96963 2.3187 8.99154 1.77896 9.55507 1.76551C9.86185 1.76556 10.1114 2.01208 10.1114 2.31507Z" fill="white"/>
<path d="M8.06953 19.4864C7.76223 19.4864 7.51313 19.7324 7.51313 20.0359C7.5131 20.3394 7.7622 20.5854 8.06953 20.5854L8.81142 20.5855C8.9651 20.5855 9.10419 20.524 9.20489 20.4245C9.30555 20.3251 9.36785 20.1877 9.36782 20.0359C9.36785 19.7324 9.11875 19.4864 8.81142 19.4864L8.06953 19.4864Z" stroke="white" stroke-width="0.2"/>
<path d="M7.32742 17.288C7.02017 17.288 6.77105 17.5341 6.77102 17.8376C6.77102 18.141 7.02015 18.3871 7.32742 18.3871L8.81118 18.3871C8.96483 18.3871 9.10395 18.3256 9.20462 18.2261C9.30529 18.1267 9.36758 17.9893 9.36758 17.8375C9.36758 17.5341 9.11845 17.288 8.81118 17.288L7.32742 17.288Z" stroke="white" stroke-width="0.2"/>
<path d="M8.06953 15.09C7.76223 15.0899 7.51316 15.336 7.51313 15.6395C7.5131 15.943 7.7622 16.189 8.06953 16.189L8.81142 16.1891C8.9651 16.1891 9.10419 16.1276 9.20489 16.0281C9.30555 15.9287 9.36785 15.7913 9.36782 15.6395C9.36785 15.336 9.11875 15.09 8.81142 15.09L8.06953 15.09Z" stroke="white" stroke-width="0.2"/>
<path d="M7.32744 12.8919C7.02019 12.8919 6.77107 13.1379 6.77104 13.4414C6.77102 13.7449 7.02014 13.991 7.32744 13.991H8.81117C8.96482 13.991 9.10394 13.9295 9.20461 13.83C9.30528 13.7306 9.36757 13.5932 9.36755 13.4414C9.36757 13.138 9.11845 12.8919 8.81115 12.8919L7.32744 12.8919Z" stroke="white" stroke-width="0.2"/>
<path d="M8.06951 10.6936C7.76218 10.6936 7.51314 10.9396 7.51311 11.2431C7.51314 11.5466 7.76223 11.7926 8.06951 11.7927H8.81138C8.96505 11.7927 9.10415 11.7312 9.20481 11.6317C9.30548 11.5323 9.36777 11.3949 9.36777 11.2431C9.36775 10.9396 9.11865 10.6936 8.81137 10.6936H8.06951Z" stroke="white" stroke-width="0.2"/>
<path d="M9.55507 0.666504C9.10923 0.666504 8.69003 0.837945 8.37473 1.14935C8.05943 1.46076 7.88585 1.87473 7.88585 2.31512L7.88585 2.74432C7.88582 3.26572 7.68024 3.75595 7.30692 4.12466C6.77884 4.64621 6.46643 5.32351 6.41166 6.05155C5.96931 6.25618 5.66203 6.69986 5.66203 7.21331L5.66203 8.20253C5.32803 8.29428 5.02186 8.46927 4.77011 8.71791L4.76856 8.71944C4.38373 9.10036 4.1724 9.60652 4.1735 10.1447C4.17429 10.5217 4.17544 10.9214 4.1772 11.2782C4.18113 12.0842 4.31873 12.8752 4.58619 13.6288L4.60153 13.6721C5.01218 14.8268 5.03657 16.1039 4.67028 17.2681L4.53885 17.686C4.29534 18.46 4.17187 19.2634 4.17188 20.0738C4.17188 21.5674 5.40221 22.7826 6.91448 22.7826H12.1937C12.9263 22.7826 13.6151 22.5008 14.1331 21.9892C14.6511 21.4776 14.9364 20.7973 14.9364 20.0738C14.9364 19.2634 14.8129 18.46 14.5694 17.686L14.4379 17.2681C14.0717 16.1039 14.0961 14.8268 14.5066 13.6723L14.5219 13.6291C14.7894 12.8753 14.9271 12.0843 14.931 11.2783C14.9327 10.9215 14.9339 10.5218 14.9347 10.1448C14.9358 9.60655 14.7245 9.10038 14.3396 8.71947C14.089 8.47142 13.7842 8.29643 13.4516 8.20406L13.4517 7.21333C13.4517 6.87084 13.3166 6.54886 13.0714 6.30664C12.9615 6.19808 12.8352 6.11158 12.6982 6.04894C12.6428 5.32188 12.3305 4.64562 11.8031 4.12471C11.4298 3.75603 11.2242 3.2658 11.2242 2.74435L11.2242 2.31515C11.2242 1.87473 11.0506 1.46074 10.7354 1.14935C10.4201 0.837972 10.0009 0.666504 9.55507 0.666504ZM13.8219 10.1425C13.8211 10.5185 13.82 10.9171 13.8183 11.2729C13.8149 11.9567 13.6983 12.6271 13.4718 13.2655L13.4568 13.3079C12.9675 14.6838 12.9386 16.2061 13.3753 17.5942L13.5068 18.0121C13.717 18.6804 13.8236 19.374 13.8236 20.0738C13.8236 20.5038 13.654 20.908 13.3462 21.212C13.0384 21.516 12.6291 21.6835 12.1938 21.6835L6.91453 21.6835C6.01584 21.6834 5.28473 20.9614 5.2847 20.0738C5.2847 19.3741 5.39132 18.6804 5.60157 18.0121L5.73301 17.5942C6.16972 16.2061 6.14082 14.6838 5.65151 13.3079L5.63646 13.2655C5.40986 12.6271 5.29333 11.9567 5.29002 11.273C5.28827 10.9171 5.28711 10.5185 5.28633 10.1425C5.2858 9.89824 5.38169 9.66862 5.55625 9.4958C5.73109 9.32312 5.96445 9.22734 6.21203 9.22732L12.8962 9.22734C13.1442 9.22734 13.3771 9.3227 13.5519 9.4958C13.7266 9.66856 13.8225 9.89824 13.8219 10.1425ZM12.3389 7.21328L12.3389 8.12826H6.77486L6.77486 7.21328C6.77491 7.11225 6.85811 7.03013 6.96035 7.03008L12.1535 7.03008C12.2557 7.0301 12.3389 7.1123 12.3389 7.21328ZM10.1114 2.31507L10.1114 2.7443C10.1114 3.5593 10.4328 4.32553 11.0163 4.90182C11.3043 5.18632 11.492 5.54332 11.563 5.93104L7.54715 5.93102C7.6181 5.54329 7.80574 5.18632 8.09382 4.9018C8.67731 4.32551 8.99867 3.55928 8.99864 2.74427C8.96963 2.3187 8.99154 1.77896 9.55507 1.76551C9.86185 1.76556 10.1114 2.01208 10.1114 2.31507Z" stroke="white" stroke-width="0.2"/>
</g>
<path d="M19.1689 12.0928C19.0044 12.0928 18.8398 12.1476 18.7301 12.3122L18.2365 12.9155C17.9074 13.2994 17.4686 13.5188 16.975 13.5188C16.4814 13.5188 15.9877 13.2994 15.7135 12.9155L15.2199 12.3122C15.1102 12.1476 14.9456 12.0928 14.7811 12.0928C12.6969 12.0928 11.4902 13.6285 11.4902 16.2064C11.4902 17.5775 12.1484 18.7293 13.1357 19.4972C13.3002 21.4717 14.9456 23.0623 16.975 23.0623C19.0044 23.0623 20.6498 21.4717 20.8143 19.4972C21.8016 18.7293 22.4598 17.5775 22.4598 16.2064C22.4598 13.6285 21.2531 12.0928 19.1689 12.0928ZM14.8359 17.5227C14.8908 17.7421 14.9456 17.9615 15.0553 18.126C14.8908 18.4003 14.7811 18.7293 14.7811 19.1133V19.223C14.7811 19.6069 14.8908 19.9908 15.0553 20.2651C15.4393 20.9233 16.1523 21.4169 16.975 21.4169C17.7977 21.4169 18.5107 20.9781 18.8947 20.2651C19.0592 19.936 19.1689 19.6069 19.1689 19.223C19.1689 19.1681 19.1689 19.1681 19.1689 19.1133C19.1689 18.7842 19.0592 18.4003 18.8947 18.126C19.0044 17.9615 19.0592 17.7421 19.1141 17.5227C19.2677 17.7227 19.5577 18.1554 19.6625 18.7842C19.7673 19.413 19.6333 19.9164 19.5528 20.1554C19.1689 21.1975 18.1817 21.9654 16.975 21.9654C15.7684 21.9654 14.7811 21.1975 14.3972 20.1554C14.3187 19.9056 14.2252 19.4944 14.2738 18.9899C14.3435 18.2639 14.6681 17.7525 14.8359 17.5227ZM18.072 17.0291C18.0746 17.1022 18.0808 17.4781 17.7909 17.7901C17.4693 18.136 17.0392 18.1282 16.975 18.126C16.8969 18.124 16.5049 18.1056 16.1934 17.7832C15.8991 17.4786 15.8802 17.1132 15.8781 17.0291C15.8815 16.9352 15.9054 16.5959 16.1729 16.3023C16.4854 15.9592 16.8967 15.9352 16.975 15.9321C17.0403 15.9306 17.4772 15.9277 17.7977 16.2818C18.0748 16.5879 18.074 16.9499 18.072 17.0291ZM15.9329 18.9487C16.262 19.1133 16.5911 19.223 16.975 19.223C17.3589 19.223 17.7429 19.1133 18.0171 18.9487C18.034 19.0048 18.1611 19.4554 17.8731 19.8674C17.5555 20.3218 17.0185 20.3208 16.975 20.3199C16.8447 20.3199 16.3453 20.2505 16.0563 19.744C15.8574 19.3953 15.9132 19.0483 15.9329 18.9487ZM20.6498 18.126C20.3756 17.1388 19.7174 16.316 18.8398 15.8224C18.4559 15.2191 17.7429 14.7803 16.975 14.7803C16.2071 14.7803 15.4941 15.2191 15.1102 15.8224C14.2326 16.3709 13.5744 17.1936 13.3002 18.126C12.8614 17.5775 12.5872 16.9194 12.5872 16.2064C12.5872 15.1094 12.8614 13.3543 14.5069 13.1897L14.8359 13.5737C15.3844 14.2318 16.1523 14.6158 16.975 14.6158C17.7977 14.6158 18.6204 14.2318 19.1141 13.5737L19.4432 13.1897C21.1434 13.3543 21.3628 15.1094 21.3628 16.2064C21.3628 16.9194 21.0886 17.6324 20.6498 18.126Z" fill="white"/>
</g>
<defs>
<clipPath id="clip0_0_710">
<rect width="24" height="24" fill="white"/>
</clipPath>
</defs>
</svg>
